<?xml version="1.0" encoding="UTF-8"?><svg id="Laag_1" xmlns="http://www.w3.org/2000/svg" viewBox="0 0 81.19 115.02"><defs><style>.cls-1{fill:#08364f;}.cls-2{fill:#7e5d2f;}.cls-3{fill:#060304;}.cls-4{fill:#643d0f;}.cls-5{fill:#6d748a;}.cls-6{fill:#fefefe;}</style></defs><path class="cls-3" d="m15.35,33.15c.07-.09.14-.19.21-.28.23.15.43.34.62.55.06.06.14.1.2.02.04-.06.02-.13-.03-.19-.11-.11-.24-.22-.34-.34-.08-.09-.22-.2-.09-.34.12-.13.26-.1.39.01.13.12.24.25.37.37.05.05.11.08.17.01.04-.05.02-.11-.02-.15-.23-.23-.41-.55-.78-.58.18-.23.37-.46.55-.69-.02.35.09.63.42.76.2.08.41.09.58-.1.07-.07.21-.15.13-.26-.09-.13-.18,0-.26.07-.18.16-.36.17-.52-.02-.15-.18-.15-.37.05-.53.12.08.04.22.09.3.05.09.13.09.18,0,.13-.28-.06-.58-.37-.59.29-.44.64-.82.98-1.22.16-.19.15-.25-.09-.35-1.16-.47-2.19-1.13-2.91-2.22-.52-.79-.72-1.7-.89-2.61-.38-1.96-.66-3.95-.56-5.95.12-2.35.91-4.33,2.98-5.56.8-.48,1.63-.88,2.47-1.29,3.37-1.66,6.95-2.66,10.57-3.5,2.37-.54,4.76-.97,7.17-1.25,1.16-.14,2.33-.27,3.49-.39.12-.01.24,0,.35,0-.05.34.11.56.38.68.23.1.46.05.64-.16.05-.06.12-.13.07-.21-.06-.09-.13-.02-.2.02-.44.28-.6.2-.68-.34,3.15-.28,6.3-.4,9.46-.28,1.51.06,3.02.15,4.52.36,2.12.3,4.2.77,6.15,1.73.07.03.15.04.18.14-.12.12-.28.06-.41.06-.73-.04-1.4.17-2.03.56-.13.08-.3.14-.27.36-.09-.02-.18-.02-.27-.05-2.62-.81-5.32-1.04-8.04-1.13-2.68-.09-5.36,0-8.04.17-.8.05-1.6.11-2.4.17.02-.11-.05-.18-.12-.25-.12-.13-.2-.3-.05-.43.15-.13.29-.01.41.11.09.1.19.19.28.29.05.05.1.1.17.03.06-.06.03-.13-.02-.18-.11-.12-.22-.23-.33-.36-.09-.1-.23-.2-.1-.34.13-.15.28-.11.42.02.1.1.2.22.31.32.05.05.12.14.2.04.07-.09-.02-.14-.07-.2-.16-.18-.32-.36-.54-.47-.19-.1-.38-.08-.48.11-.1.18-.21.31-.38.42-.21.13-.24.35-.11.57.07.13.18.24.26.35-2.07.22-4.13.47-6.18.85-5.6,1.04-11.04,2.63-16.13,5.37-.47.25-.82.6-1.06,1.07-.3.57-.5,1.19-.58,1.83-.16,1.32-.12,2.65.03,3.97.12,1.12.29,2.24.55,3.33.14.58.42,1.08.88,1.44,1.27,1.01,2.71,1.55,4.3,1.66,1.2,0,2.4,0,3.61,0,.1,0,.21.02.31.02,2.06-.04,4.11-.23,6.16-.44.25-.03.52.04.75-.14.18,0,.36-.01.54-.02.06,0,.12,0,.18,0,.6-.06,1.19-.12,1.79-.17.45-.03.89-.04,1.34-.09,1.98-.2,3.96-.35,5.95-.47,1.14-.07,2.29-.13,3.43-.2.23-.02.47-.04.7-.07.03,0,.07,0,.1,0,.04,0,.08,0,.13,0,1.47-.07,2.92-.3,4.38-.51,2.19-.31,4.37-.64,6.55-.97.66-.1,1.35-.12,1.98-.4.33.03.63-.14.95-.18.32-.05.62-.13.91-.28.09-.04.2-.04.26-.14,1.5-.21,2.77-1.81,2.81-3.54.05-.79.02-1.57,0-2.36-.03-.87-.1-1.74-.31-2.59,0-.1,0-.19-.02-.29-.17-.91-.44-1.78-.81-2.62.19-.03.19-.21.23-.34.27-.95.08-1.81-.43-2.62-.08-.12-.2-.23-.17-.4,1.41,1.01,2.26,2.43,2.73,4.12.65,2.38.95,4.81.7,7.28-.21,2.05-1.22,3.6-2.95,4.6-.04.02-.09.05-.17.09.56.4,1.1.76,1.64,1.15,1.86,1.33,3.24,3.13,4.49,5.06.92,1.43,1.85,2.84,2.36,4.5.46,1.51.77,3.05,1.06,4.6.27,1.49.5,2.99.62,4.5.14,1.71.25,3.42.34,5.12.14,2.61.23,5.22.37,7.82.32,6.01.43,12.01.29,18.03-.05,2.38-.36,4.73-.56,7.09-.12,1.37-.17,2.76-.26,4.13-.18,2.67-.7,5.25-1.7,7.72-.4.98-.81,1.96-1.23,2.93-.76,1.74-2.01,3-3.51,4.04-1.81,1.25-3.81,1.97-5.95,2.32-1.43.24-2.85.59-4.28.84-1.36.24-2.73.42-4.09.64-2.4.4-4.82.51-7.23.73-.97.09-1.95.14-2.92.18-.31.01-.61.18-.93.05.04-.05.08-.1.12-.16.07-.1.27-.18.15-.32-.11-.12-.19.07-.28.13-.12.08-.25.09-.37.02-.11-.07-.2-.18-.19-.34,0-.08,0-.18.09-.2.12-.03.11.08.12.16.01.09.03.17.13.17.02,0,.07-.05.07-.08-.02-.21.11-.49-.13-.59-.22-.09-.4.1-.5.31-.11.22-.01.42.11.61.17.26.44.19.67.27-.34.11-.69.06-1.04.07-.04-.22-.2-.24-.36-.22-.14.02-.31.04-.26.27-1.6.12-3.21.15-4.82.08-2.45-.1-4.87-.5-7.3-.78-2.69-.3-5.27-1.03-7.83-1.89-1.91-.65-3.82-1.31-5.53-2.45-1.5-1-2.85-2.17-3.72-3.85-.56-1.09-.77-2.28-.91-3.48-.19-1.6-.35-3.21-.47-4.82-.14-1.8-.26-3.61-.32-5.41-.14-4.3-.26-8.59-.33-12.89-.07-4.04,0-8.07.16-12.11.12-3.19.26-6.38.55-9.55.35-3.88,1.03-7.67,2.68-11.21.5-1.08,1.06-2.12,1.69-3.11.09.1.11.21.05.33-.04.08-.11.19,0,.24.11.06.19-.05.23-.15.1-.25.1-.45-.21-.51.16-.25.33-.5.49-.74.07.08.13.18.22.23.21.1.42.13.59-.11.14-.2.13-.38-.02-.55-.04-.05-.09-.11-.17-.07-.08.05-.03.11,0,.17.06.13.09.28-.05.37-.13.09-.25.01-.35-.08-.04-.03-.09-.03-.14-.05.2-.36.46-.68.72-.99.22.18.36.46.74.61-.19-.38-.35-.62-.67-.71.13-.17.26-.34.39-.51.02.31.29.43.46.63.05.06.13.12.2.03.06-.08,0-.15-.06-.21-.18-.18-.36-.35-.48-.59Zm22.52-24.77s-.05-.05-.08-.08c0-.11,0-.22,0-.33.1,0,.21,0,.31,0l.16.08c.04.27.01.53-.3.57-.21.03-.38-.12-.44-.34-.06-.22.04-.4.18-.56.22-.06.43,0,.64.08.01.03.02.06.03.1,0-.01.01-.02,0-.03-.01-.02-.03-.04-.05-.06-.19-.22-.38-.39-.64-.09-.33.09-.4.34-.3.63.1.28.3.51.63.39.31-.12.39-.37.22-.68-.04-.06-.09-.08-.16-.08-.1-.13-.21-.12-.31,0-.11.11-.13.22,0,.33.03.03.05.06.08.08h.04s-.02,0-.03,0ZM10.4,75.76c0,.3,0,.61.01.91,0,.26,0,.52,0,.79.07,2.34.14,4.69.22,7.03.04,1.36.07,2.73.19,4.09-.03.38-.31.57-.59.68-.22.09-.4-.07-.42-.34,0-.08,0-.18.08-.21.12-.04.11.07.13.14.02.09.09.24.16.12.1-.15.08-.39,0-.55-.09-.18-.26-.07-.38,0-.26.17-.31.49-.15.75.21.34.53.44.81.25.14-.1.26-.23.39-.35.22,2.11.34,4.24.65,6.34.18,1.2.56,2.3,1.38,3.18.67.72,1.4,1.37,2.22,1.91,1.53,1,3.22,1.58,4.92,2.17,2.03.7,4.08,1.32,6.2,1.69,1.02.18,2.05.2,3.07.36.66.11,1.32.23,2,.23.38.03.76.08,1.14.09,2.15.05,4.3.03,6.45-.09,1.41-.03,2.81-.1,4.22-.22,2.27-.19,4.54-.36,6.8-.58,2.52-.24,5.03-.47,7.51-1.02,1.93-.43,3.89-.79,5.72-1.64,1.28-.59,2.47-1.29,3.36-2.45.3-.39.65-.72.97-1.1.85-1.02,1.6-2.11,2.13-3.36.11-.25.23-.49.32-.75.93-2.57,1.22-5.25,1.36-7.97.06-1.23.13-2.45.26-3.68.17-1.69.41-3.37.42-5.07.03-3.15.15-6.3.07-9.45-.06-2.33-.14-4.67-.26-7-.1-1.93-.18-3.86-.25-5.8-.1-2.57-.25-5.13-.42-7.69-.14-2.06-.38-4.11-.77-6.14-.29-1.53-.58-3.07-1.12-4.53-.56-1.53-1.52-2.82-2.4-4.16-.7-1.07-1.47-2.08-2.43-2.91-.31-.37-.69-.64-1.06-.91-1.46-1.07-2.97-1.89-4.86-1.5-2.15.44-4.35.66-6.51,1.02-3.12.53-6.27.83-9.42,1-2.17.12-4.34.32-6.5.49-1.23.1-2.47.22-3.7.34-1.8.18-3.61.37-5.42.48-1.07.06-2.13.04-3.2.1-.79,0-1.58,0-2.37,0-.26-.03-.53-.04-.78-.09-.27-.05-.46.01-.66.23-1.27,1.44-2.43,2.97-3.6,4.49-2.19,2.85-3.66,6.08-4.47,9.64-.43,1.91-.67,3.85-.85,5.79-.14,1.52-.24,3.05-.33,4.58-.05.87-.02,1.74-.1,2.6-.07.71,0,1.43-.11,2.14-.08-.03-.12.01-.16.08-.33.64-.51,1.33-.36,2.05.07.33.03.75.42.94,0,.08,0,.17,0,.25h0c0,.65,0,1.3,0,1.95-.06,2.74-.08,5.47,0,8.21,0,.14,0,.28,0,.42,0,.36.01.72.02,1.07-.04.31,0,.61.05.91Z"/><path class="cls-1" d="m58.24,9.74c-.03-.22.14-.28.27-.36.62-.39,1.29-.6,2.03-.56.14,0,.29.07.41-.06,0,0,0,.01,0,.01.05.17.16.13.28.1,0,0,0,0,0,0,0,.03.02.06.02.08.03-.02.06-.04.09-.06.39.22.78.43,1.12.73-.02.17.1.27.17.4.51.81.7,1.67.43,2.62-.04.13-.04.31-.23.34-.11-.17-.22-.33-.33-.5.16-.09.15-.24.16-.39.02-.94-.37-1.65-1.11-2.15-.78-.52-1.94-.46-2.51.1l-.79-.3Z"/><path class="cls-1" d="m41.25,107.15c-.23-.07-.51,0-.67-.27-.12-.19-.22-.39-.11-.61.1-.21.28-.4.5-.31.24.1.11.38.13.59,0,.02-.04.08-.07.08-.1,0-.12-.08-.13-.17-.01-.07,0-.19-.12-.16-.09.02-.09.12-.09.2,0,.16.07.27.19.34.12.07.25.06.37-.02.09-.06.17-.26.28-.13.12.14-.08.22-.15.32-.04.05-.08.11-.12.16,0,0,0-.02,0-.02Z"/><path class="cls-1" d="m16.89,31.17c.31.01.5.32.37.59-.05.1-.12.1-.18,0-.05-.09.02-.22-.09-.3-.2.16-.19.35-.05.53.16.19.34.18.52.02.07-.07.16-.2.26-.07.08.12-.06.19-.13.26-.17.19-.38.18-.58.1-.32-.13-.44-.41-.42-.76.1-.12.2-.25.3-.37Z"/><path class="cls-1" d="m16.04,32.24c.37.03.55.35.78.58.04.04.06.1.02.15-.06.07-.12.04-.17-.01-.13-.12-.24-.25-.37-.37-.12-.11-.27-.14-.39-.01-.14.15,0,.25.09.34.11.12.23.22.34.34.05.05.08.13.03.19-.06.09-.14.05-.2-.02-.18-.21-.39-.4-.62-.55.16-.21.32-.42.48-.64Z"/><path class="cls-1" d="m40.65,6.81c.08.54.24.62.68.34.07-.04.14-.11.2-.02.06.08-.02.15-.07.21-.17.22-.41.26-.64.16-.27-.12-.43-.34-.38-.68.07,0,.14,0,.2-.01Z"/><path class="cls-1" d="m14.06,34.88s.11.02.14.05c.11.09.23.17.35.08.13-.09.1-.24.05-.37-.03-.06-.08-.12,0-.17.07-.04.12.02.17.07.15.18.16.35.02.55-.17.24-.38.21-.59.11-.09-.04-.15-.15-.22-.23.02-.03.05-.06.07-.09Z"/><path class="cls-1" d="m15.35,33.15c.11.24.3.41.48.59.06.06.12.12.06.21-.07.1-.15.03-.2-.03-.16-.2-.43-.32-.46-.63,0-.08.05-.12.11-.14Z"/><path class="cls-1" d="m14.85,33.79c.31.09.47.33.67.71-.38-.15-.52-.43-.74-.61.02-.03.05-.06.07-.1Z"/><path class="cls-1" d="m13.5,35.71c.32.06.31.26.21.51-.04.11-.12.21-.23.15-.11-.05-.04-.16,0-.24.06-.12.05-.23-.05-.33.02-.03.05-.06.07-.09Z"/><path class="cls-1" d="m39.58,107.27c-.04-.23.12-.25.26-.27.16-.02.32,0,.36.22-.2.1-.41.07-.62.05Z"/><path class="cls-3" d="m61.22,8.88c-.11.03-.23.07-.28-.1.13-.08.2.04.28.1Z"/><path class="cls-3" d="m61.33,8.9s-.06.04-.09.06c0-.03-.02-.06-.02-.08.04,0,.07.02.11.02Z"/><path class="cls-5" d="m23.7,30.49c1.07-.06,2.13-.04,3.2-.1,1.81-.11,3.61-.3,5.42-.48,1.23-.12,2.47-.24,3.7-.34,2.17-.17,4.33-.37,6.5-.49,3.16-.17,6.3-.47,9.42-1,2.17-.36,4.36-.58,6.51-1.02,1.89-.39,3.4.43,4.86,1.5.37.28.76.55,1.06.91-.28.13-.6.17-.88.14-.96-.08-1.91-.08-2.87.01-1.62.15-3.17.62-4.72,1.08-1.41.41-2.82.72-4.28.84-.96.08-1.89.3-2.82.55-1.05.28-2.08.68-3.18.72-.41-.1-.82-.19-1.24-.23-1.56-.13-3.2,1.09-3.61,2.68-.11.43-.04.85.02,1.29-.47-.15-.9-.29-1.32-.42-.18-.03-.35-.13-.55-.1-.17-.12-.37-.08-.56-.11-.31-.05-.62-.05-.93.02-.57-.03-1.11.08-1.63.33-.23-.02-.42.13-.63.2-.24.07-.47.17-.67.32-.27.13-.54.26-.77.46-1.05.66-1.79,1.64-2.48,2.7-.87-1.15-2-1.56-3.31-1.17-2.46.73-3.3,3.63-1.67,5.44.13.14.08.22,0,.34-.35.5-.63,1.05-.86,1.62-.53,1.33-.86,2.69-.6,4.14.08.47.26.9.45,1.45-.22-.18-.38-.12-.53-.15-1.52-.33-4.01.76-4.77,2.52-.1.23-.18.23-.36.1-.69-.5-1.48-.59-2.27-.41-1.03.23-1.82.84-2.08,1.95-.29,1.19-.09,2.3.78,3.2.15.16.17.22.03.38-.28.33-.52.69-.7,1.1-.14.2-.23.42-.27.66-.33.76-.47,1.56-.38,2.4-.02.03-.05.06-.07.09-.08.2.05.37.08.56.2,1.42.74,2.68,1.69,3.73.79.87,1.69,1.6,2.82,2.06-.15.1-.25.18-.36.24-.57.37-1.13.78-1.39,1.42-.25.61-.56.73-1.18.71-.98-.03-1.95.21-2.65,1.04-1.35,1.61-.56,4.5,1.41,5.13.26.08.29.18.27.42-.12,1.14.16,2.18.74,3.14.1.21.2.42.36.59.03.05.07.1.1.15v.02c.5.68,1.04,1.32,1.75,1.81-.39.2-.73.36-1.06.56-.16.1-.24.07-.36-.06-.33-.38-.73-.67-1.21-.81-.51-.15-1.02-.36-1.56-.14-.17-.03-.33-.02-.47.09-.39.05-.71.27-1.02.5-.85.64-1.51,2.31-.86,3.24,0-.07-.02-.16-.09-.12-.07.04-.04.14-.02.21.28.96.83,1.68,1.68,2.13.24.13.31.27.28.54-.11,1.04.04,2.06.31,3.06.73,2.73,2.26,4.7,4.86,5.65,1.39.51,2.85.67,4.31.68,1.33.01,2.65-.17,3.95-.49.21-.05.34-.07.39.23.09.49.39.87.77,1.16.77.6,1.64.9,2.58,1.02.72.09,1.35-.12,1.92-.56.46-.36.79-.84,1.09-1.35.52-.88.49-1.74-.02-2.61-.08-.13-.22-.24-.2-.43.86-.24,1.7-.14,2.54.08,1.5.38,3,.57,4.51.09.13-.04.19-.02.26.08.41.57.98.91,1.59,1.19.27.12.36.25.32.57-.16,1.07.25,1.91,1.05,2.56.8.66,1.71.68,2.66.52.74-.12,1.4-.4,1.95-.91.6-.57.74-1.3.61-2.11-.03-.18.08-.21.19-.24,1.32-.39,2.54-1.04,3.72-1.75.98-.59,2.02-.84,3.14-.67.02.09.07.14.16.14.84,0,1.67,0,2.51,0,.09,0,.15-.04.17-.14.44-.06.88-.13,1.31-.25,1.39-.38,2.4-1.3,3.28-2.44.06.33.36.35.57.4,1.59.39,3.2.45,4.83.27.23-.02.47-.07.69.07-.53,1.24-1.28,2.34-2.13,3.36-.31.37-.67.71-.97,1.1-.89,1.17-2.08,1.86-3.36,2.45-1.83.85-3.78,1.21-5.72,1.64-2.48.55-4.99.77-7.51,1.02-2.27.22-4.54.4-6.8.58-1.4.12-2.81.18-4.22.22-.74-.15-1.49-.09-2.23-.05-1.49.08-2.98.1-4.48,0-.29-.02-.6-.09-.89.05-.67,0-1.34-.12-2-.23-1.02-.17-2.05-.19-3.07-.36-2.12-.37-4.17-.99-6.2-1.69-1.7-.58-3.39-1.17-4.92-2.17-.82-.54-1.55-1.19-2.22-1.91-.82-.89-1.2-1.99-1.38-3.18-.31-2.1-.43-4.23-.65-6.34,0-.17.04-.34-.03-.5-.13-1.36-.15-2.72-.19-4.09-.07-2.34-.15-4.69-.22-7.03,0-.26,0-.52,0-.79.02-.05.06-.1.06-.14,0-.85,0-1.69,0-2.54,0-.11-.02-.19-.14-.21,0-.14,0-.28,0-.42.09-.09.07-.2.07-.31,0-2.53,0-5.06,0-7.58,0-.11.02-.22-.07-.31,0-.65,0-1.3,0-1.95,0,0,.02,0,.02,0h-.02c0-.09,0-.17,0-.25.1-1.02.08-2.05.1-3.07.11-.71.04-1.43.11-2.14.09-.86.05-1.73.1-2.6.09-1.53.19-3.05.33-4.58.18-1.95.42-3.88.85-5.79.81-3.56,2.28-6.79,4.47-9.64,1.17-1.52,2.34-3.05,3.6-4.49.2-.22.38-.29.66-.23.26.05.52.06.78.09.02.12.11.14.2.14.65,0,1.3,0,1.95,0,.1,0,.18-.02.21-.14Z"/><path class="cls-6" d="m69.6,94.6c-.22-.15-.46-.1-.69-.07-1.62.17-3.24.11-4.83-.27-.21-.05-.51-.07-.57-.4.31-.46.62-.92.92-1.39.12-.19.21-.18.41-.1,1.35.55,2.66.5,3.82-.49,1.13-.95,1.44-2.33.83-3.45-.64-1.16-2.07-1.91-3.35-1.73-.31.04-.67.25-.9.14-.23-.11-.31-.54-.49-.81-.11-.17-.1-.22.08-.31.7-.33,1.33-.77,1.83-1.39.69-.86,1.04-1.85,1.15-2.99.17-1.77-.02-3.45-.76-5.05-.1-.21-.12-.31.03-.52.82-1.04.82-2.42.03-3.49-.07-.09-.11-.14-.06-.28.41-1.12.33-2.23-.1-3.33-.13-.33-.36-.61-.43-.96h0c.08.01.16,0,.24.01,1.44.16,2.84-.63,3.48-1.99.97-2.04-.57-3.99-1.96-4.49-.39-.14-.81-.16-1.2,0-.3.12-.41.05-.48-.28-.24-1.06-.75-1.96-1.53-2.68-.21-.19-.17-.3-.03-.48.8-1.03.96-2.2.62-3.46-.42-1.55-1.69-2.42-3.2-2.24-.78.1-1.4.51-2,1.01-.49-.84-1.15-1.49-1.95-2.01.33-.32.56-.65.71-1.04.08-.22.16-.21.34-.12.84.4,1.71.39,2.57.12,1.18-.37,2.01-1.5,2.03-2.7.01-1.35-.91-2.7-2.13-3.12-.75-.26-1.49-.22-2.24.1,0-.66-.11-1.26-.48-1.72-.56-.69-.81-1.48-.97-2.35-.05-.28,0-.34.22-.44,1.07-.51,1.59-1.42,1.69-2.62,0-.06.01-.11.02-.17.03-.28.02-.56-.09-.83.02-.05.04-.1-.02-.14-.3-1.23-1.28-2.17-2.41-2.31-1.42-.18-2.7.45-3.27,1.62-.08.16-.12.2-.3.12-1.1-.49-2.24-.63-3.43-.54-.85.07-1.69.23-2.51.48-.09.03-.18.15-.24-.05-.4-1.25-1.23-2.08-2.37-2.6,1.1-.04,2.13-.44,3.18-.72.92-.24,1.86-.47,2.82-.55,1.45-.13,2.87-.43,4.28-.84,1.55-.46,3.1-.92,4.72-1.08.96-.09,1.91-.09,2.87-.01.29.02.6-.01.88-.14.97.83,1.73,1.84,2.43,2.91.88,1.33,1.83,2.62,2.4,4.16.54,1.47.82,3,1.12,4.53.39,2.03.64,4.08.77,6.14.17,2.56.32,5.13.42,7.69.08,1.93.16,3.86.25,5.8.12,2.33.2,4.66.26,7,.08,3.15-.04,6.3-.07,9.45-.02,1.7-.25,3.38-.42,5.07-.13,1.22-.2,2.45-.26,3.68-.13,2.72-.43,5.4-1.36,7.97-.09.25-.21.5-.32.75Z"/><path class="cls-5" d="m58.24,9.74c.26.1.53.2.79.3.29.12.56.31.87.36.79.45,1.57.9,2.21,1.58.13.17.25.34.38.51.11.17.22.34.33.5.36.84.64,1.71.81,2.62.02.09.01.19.02.29-.44.03-.89.03-1.32.09-1.01.14-2.02.29-3.03.47-.54.09-1.1.06-1.63.26-.13-.77-.23-1.55-.5-2.28-.12-.34-.26-.73-.68-.66-.45.07-.43.51-.42.86.03,1.14.08,2.28.13,3.43-.15-.1-.13-.25-.14-.4q-.03-.75-.75-.6s-.08.02-.11.03c-.43.1-.65.53-.48.93-.23-.15-.38-.16-.61.1-.58.68-1.22,1.31-1.84,1.95-.57.58-1.1,1.21-1.73,1.72-.01-.61-.11-1.22-.23-1.82.32.44.19.99.34,1.47.03-.01.06-.01.08-.03,1.13-1.18,2.25-2.36,3.39-3.54.15-.16.13-.26-.01-.4-.13-.14-.25-.23-.44-.21-.3.04-.6.06-.9.1-.95.13-1.91.16-2.85.38-.03-.12-.07-.24-.09-.36-.2-.84-.34-1.7-.63-2.51-.1-.28-.29-.48-.6-.43-.3.05-.43.29-.44.6,0,.18-.01.36,0,.54,0,.77.15,1.53.23,2.3-.21,0-.42-.03-.63,0-1.8.14-3.61.26-5.41.44-.51.05-1.03-.03-1.52.17-.03-.22-.07-.43-.1-.65-.11-.81-.21-1.61-.51-2.37-.13-.34-.31-.67-.72-.65-.29.01-.46.35-.45.9.03.98.07,1.96.11,2.94-.06,0-.13-.02-.19-.02-1.29.14-2.59.26-3.88.43-.8.1-1.61.12-2.41.33.25.41.68.61.85,1.05-.37-.14-.56-.49-.82-.75-.19-.2-.37-.29-.63-.24-.72.13-1.45.24-2.18.36-.07-.8-.12-1.6-.2-2.39-.05-.53-.08-1.07-.23-1.59-.1-.32-.28-.57-.65-.55-.35.02-.55.24-.63.58-.03.13-.05.27-.06.41-.13,1.3,0,2.59.04,3.89-.19-.06-.39-.03-.59,0-1.91.24-3.83.49-5.75.71-.36.04-.63.09-.65.54-.06-1.15-.11-2.31-.18-3.46-.04-.63-.3-.96-.71-.97-.4,0-.71.37-.79.97,0,.04,0,.08,0,.12-.15,1.06-.05,2.11-.02,3.17-1.09.19-2.17.29-3.28.17-.65-.07-.65-.04-.76.62,0,.01-.01.03-.02.04-.15-1.32-.2-2.64-.03-3.97.08-.65.28-1.26.58-1.83.24-.47.59-.81,1.06-1.07,5.09-2.74,10.53-4.33,16.13-5.37,2.05-.38,4.11-.63,6.18-.85.06.01.12.04.17-.04.8-.06,1.6-.11,2.4-.17,2.68-.17,5.36-.26,8.04-.17,2.71.09,5.41.31,8.04,1.13.09.03.18.03.27.05Zm-10.85.56c-1.29,0-2.57.11-3.86.15-1.6.06-3.2.18-4.8.25-1.26.06-2.51.2-3.76.38-1.66.24-3.32.51-4.96.87-1.73.38-3.49.64-5.17,1.26-.51.19-1.01.41-1.4.81-.21.21-.28.49-.18.76.1.26.3.46.59.47.34.02.68.03,1.02-.08.59-.18,1.19-.36,1.79-.5,2.87-.65,5.75-1.22,8.67-1.59,1.38-.18,2.76-.39,4.14-.46,1.79-.09,3.57-.18,5.36-.25,2.38-.1,4.77-.04,7.14.17.66.06,1.31.04,1.97.11.97.1,1.94-.01,2.91-.11.25-.02.44-.15.48-.41.04-.28-.14-.46-.36-.58-.09-.05-.19-.09-.29-.12-.88-.26-1.79-.42-2.69-.59-2.18-.4-4.38-.53-6.59-.56Z"/><path class="cls-1" d="m29.9,19.79c.73-.12,1.45-.24,2.18-.36.26-.04.44.05.63.24.26.27.45.62.82.75h0c.01.15.09.24.24.25h0c.05.22.18.36.4.42h0c.01.15.09.24.24.25h0c.05.22.18.36.4.42h0c.01.15.09.24.24.25h0c.05.22.18.36.4.42h0c.01.15.09.24.24.25h0c.05.22.18.36.4.42h0c.02.23.23.33.36.48.14.16.16.29,0,.45-.8.82-1.59,1.64-2.38,2.47-.44.46-.88.93-1.33,1.4-.06,0-.12,0-.18,0-.18-.12-.37-.11-.54.02-.23.17-.5.11-.75.14-2.05.21-4.1.41-6.16.44-.1,0-.21-.01-.31-.02-.08-.07-.17-.07-.26-.07-1.03,0-2.06,0-3.08,0-.09,0-.19,0-.26.07-1.59-.11-3.03-.65-4.3-1.66-.45-.36-.74-.87-.88-1.44-.26-1.1-.44-2.21-.55-3.33,0-.01.01-.02.02-.04.11-.66.11-.69.76-.62,1.1.12,2.19.02,3.28-.17.05.86.07,1.73.21,2.59.07.41.16.83.62.96.45.12.7-.16.9-.54,0,0,.02,0,.04,0,.15-.3.1-.6.02-.9,0-.15,0-.3,0-.45.08-.44.17-.87-.07-1.29,0-.06,0-.13,0-.19.01-.45.29-.5.65-.54,1.92-.22,3.83-.47,5.75-.71.2-.02.39-.05.59,0,.07.74.13,1.47.21,2.21.04.42.07.85.26,1.24.16.33.42.53.79.49.38-.03.58-.27.7-.63.1-.33.06-.66.03-.98-.08-.89-.17-1.78-.26-2.67Z"/><path class="cls-1" d="m33.52,20.42c-.17-.44-.6-.64-.85-1.05.8-.21,1.62-.23,2.41-.33,1.29-.17,2.58-.29,3.88-.43.06,0,.13.01.19.02.12.83.1,1.67.16,2.5.03.44.04.88.12,1.31.09.51.47.8.89.74.43-.06.72-.42.72-.93,0-.4-.04-.8-.06-1.2-.05-.86-.11-1.73-.17-2.59.49-.2,1.01-.12,1.52-.17,1.8-.18,3.61-.3,5.41-.44.21-.02.42,0,.63,0,.12.67.22,1.35.35,2.02.19.96.18,1.96.51,2.9-.05.13-.02.31-.2.36,0,0-.02-.01-.03-.02.01,0,.02.01.03.02-.02.05-.02.11-.06.15-1.02,1.07-2.06,2.12-3.08,3.19-.18.19-.36.37-.64.32-.16-.03-.07.07-.06.13-1.14.07-2.29.13-3.43.2-1.99.12-3.97.27-5.95.47-.44.05-.89.06-1.34.09-.43-.16-.87,0-1.44,0,1.12-1.16,2.16-2.22,3.19-3.3q.44-.45.93-.06s.1.04.15.05c.01.16.09.24.24.25.05.22.18.36.4.41.01.16.09.24.24.25.05.22.18.36.4.41.01.16.09.24.24.25.05.22.18.36.4.41.01.16.09.23.24.25.03.03.05.06.08.08,0,.1.05.16.16.17,0,.07.01.13.1.12.01,0,.03-.06.03-.06-.04-.02-.08-.04-.12-.06,0-.1-.05-.17-.16-.17-.03-.03-.05-.06-.08-.08-.01-.15-.09-.24-.24-.25-.05-.23-.18-.36-.4-.41-.01-.15-.09-.24-.24-.25-.05-.23-.18-.36-.4-.41-.01-.15-.09-.24-.24-.25-.05-.23-.18-.36-.4-.41-.01-.15-.09-.24-.24-.25,0-.11-.06-.17-.13-.25-.35-.4-.34-.45.02-.81.49-.5.98-1,1.47-1.5.08-.08.2-.14.17-.29-.09-.06-.13.01-.17.06-.55.57-1.11,1.13-1.64,1.72-.23.25-.39.34-.62.03-.09-.12-.19-.27-.37-.28,0,0,0,0,0,0-.05-.23-.18-.36-.4-.42h0c-.01-.15-.09-.24-.24-.25,0,0,0,0,0,0-.05-.23-.18-.36-.4-.42h0c-.01-.15-.09-.24-.24-.25,0,0,0,0,0,0-.05-.23-.18-.36-.4-.42h0c-.01-.15-.09-.24-.24-.25,0,0,0,0,0,0-.05-.23-.18-.36-.4-.42h0c-.01-.15-.09-.24-.24-.25h0Z"/><path class="cls-1" d="m50.55,21.78c.63-.51,1.16-1.14,1.73-1.72.62-.64,1.26-1.27,1.84-1.95.23-.26.38-.25.61-.1,0,0,0,0,0,0,.1.12.13.31.32.33h0c.27.42.57.79,1.03,1h0c.11.34.06.69.08,1.04,0,.14-.04.31.13.39.08.41.13.84.6.97.37.1.63-.1.83-.4.06-.03.13-.06.19-.09h0c0,.16.12.24.21.33.43.46.87.92,1.31,1.37.14.14.24.34.46.37h0c.08.29.54.39.31.88.4-.27.64-.53.8-.89h0s.05-.05.08-.08h0c.19-.02.29-.14.32-.33h0c.15,0,.23-.1.24-.25h0s.05-.05.08-.08h0c.19-.02.29-.14.32-.33h0c.15,0,.23-.1.24-.25h0s.05-.05.08-.08h0c.19-.02.29-.14.32-.33h0c.15,0,.23-.1.24-.25h0s.05-.05.08-.08h0c.19-.02.29-.14.32-.33h0s.05-.05.08-.08h0c.1,0,.15-.06.16-.17h0c.16.02.22-.18.36-.2.07.12,0,.28.1.39-.04,1.73-1.31,3.33-2.81,3.54-.1,0-.24-.04-.26.14-.29.15-.6.23-.91.28-.06-.11-.22-.02-.27-.15.03-.03.05-.06.08-.08.11,0,.16-.06.16-.17.06,0,.13-.01.12-.1,0,0-.02-.03-.03-.03-.09,0-.09.06-.1.13-.11,0-.16.06-.16.17-.03.03-.05.06-.08.08-.23.11-.45.22-.68.34-.63.28-1.32.3-1.98.4-2.18.34-4.37.66-6.55.97-1.46.21-2.91.44-4.38.51-.04-.04-.09-.05-.13,0-.03,0-.07,0-.1,0-.05-.11.02-.18.09-.25.98-1.02,1.95-2.05,2.94-3.07.18-.18.3-.45.59-.49.56.09.73,0,1.03-.55.22-.19.19-.4.05-.62-.04-.03-.06-.07-.04-.12Zm10.07,2.32s.04.02.06.03c0,0,.02-.02.02-.03,0,0-.02-.03-.02-.03-.02,0-.04.02-.06.02Zm.16.19l.02-.03h-.03s.01.03.01.03Z"/><path class="cls-1" d="m57.68,16.72c.53-.2,1.08-.17,1.63-.26,1.01-.17,2.02-.33,3.03-.47.44-.06.88-.06,1.32-.09.21.85.29,1.72.31,2.59-.07.11-.06.24-.06.36,0,.64.13,1.31-.4,1.82h0c-.11,0-.16.05-.16.17,0,0,0,0,0,0-.03.03-.05.06-.08.09h0c-.18.03-.3.13-.32.33h0s-.05.05-.08.08h0c-.15.01-.23.09-.24.25h0c-.18.03-.3.13-.32.33h0s-.05.05-.08.08h0c-.15.01-.23.09-.24.25h0c-.18.03-.3.13-.32.33h0s-.05.05-.08.08h0c-.15.01-.23.09-.24.25h0c-.18.03-.3.13-.32.33h0s-.05.05-.08.08c0,0,0,0,0,0-.13,0-.22.1-.29.19-.2.25-.37.27-.52-.04-.06-.12-.17-.16-.3-.15,0,0,0,0,0,0,0-.18-.14-.26-.23-.36-.41-.44-.83-.87-1.24-1.31-.15-.16-.25-.39-.5-.41h0c0-.08,0-.16-.08-.21,0-.06.01-.12.02-.17.21-.28.21-1.92,0-2.21-.05-.64-.1-1.29-.16-1.93Z"/><path class="cls-5" d="m36.05,23.07c.18,0,.28.16.37.28.24.31.4.22.62-.03.53-.59,1.09-1.15,1.64-1.72.04-.05.08-.11.17-.06.03.15-.1.21-.17.29-.49.51-.98,1.01-1.47,1.5-.36.37-.37.41-.02.81.06.07.13.14.13.25h0s-.11-.02-.15-.05q-.5-.39-.93.06c-1.04,1.07-2.07,2.14-3.19,3.3.57,0,1.01-.17,1.44,0-.59.06-1.19.12-1.79.17.44-.47.88-.94,1.33-1.4.79-.83,1.58-1.65,2.38-2.47.16-.17.14-.29,0-.45-.13-.15-.33-.24-.36-.48Z"/><path class="cls-1" d="m10.43,59.87c-.02,1.02,0,2.05-.1,3.07-.38-.19-.35-.61-.42-.94-.15-.72.03-1.41.36-2.05.03-.06.08-.11.16-.08Z"/><path class="cls-1" d="m39.5,8.9c-.04.08-.11.05-.17.04-.09-.12-.19-.23-.26-.35-.13-.22-.09-.44.11-.57.17-.11.28-.24.38-.42.1-.18.29-.21.48-.11.22.11.38.29.54.47.05.06.14.12.07.2-.07.09-.14,0-.2-.04-.11-.1-.2-.21-.31-.32-.13-.13-.29-.17-.42-.02-.13.15.02.25.1.34.11.12.22.24.33.36.05.05.08.12.02.18-.06.07-.12.02-.17-.03-.09-.1-.19-.19-.28-.29-.12-.12-.26-.24-.41-.11-.15.13-.07.3.05.43.06.07.14.13.12.25Z"/><path class="cls-5" d="m49.51,23.07c-.29.03-.41.31-.59.49-.99,1.02-1.96,2.04-2.94,3.07-.07.07-.14.13-.09.25-.23.02-.46.04-.7.07,0-.06-.11-.16.06-.13.28.05.46-.12.64-.32,1.02-1.07,2.05-2.13,3.08-3.19.03-.03.04-.1.06-.15h0c.18-.05.15-.23.2-.36.09.09.19.18.28.28Z"/><path class="cls-1" d="m10.83,88.58c.07.16.03.33.03.5-.13.12-.25.25-.39.35-.28.19-.59.09-.81-.25-.17-.26-.11-.58.15-.75.12-.08.29-.18.38,0,.08.16.1.4,0,.55-.07.12-.14-.02-.16-.12-.02-.07-.02-.19-.13-.14-.09.03-.09.13-.08.21.03.27.2.43.42.34.28-.12.56-.3.59-.68Z"/><path class="cls-6" d="m31.3,104.96c.29-.15.59-.07.89-.05,1.49.11,2.98.09,4.48,0,.74-.04,1.49-.1,2.23.05-2.15.12-4.3.14-6.45.09-.38,0-.76-.06-1.14-.09Z"/><path class="cls-6" d="m10.34,65.15c.09.09.07.2.07.31,0,2.53,0,5.06,0,7.58,0,.11.02.22-.07.31-.08-2.74-.06-5.47,0-8.21Z"/><path class="cls-6" d="m23.7,30.49c-.02.12-.11.14-.21.14-.65,0-1.3,0-1.95,0-.1,0-.18-.02-.2-.14.79,0,1.58,0,2.37,0Z"/><path class="cls-1" d="m37.71,7.72c-.14.16-.24.33-.18.56.06.23.23.37.44.34.31-.04.33-.3.3-.57h0c.17.32.09.56-.22.68-.33.12-.53-.11-.63-.39-.1-.28-.03-.54.3-.63h0Z"/><path class="cls-6" d="m10.34,73.78c.12.02.14.1.14.21,0,.85,0,1.69,0,2.54,0,.05-.04.1-.06.14,0-.3,0-.61-.01-.91,0-.3.06-.61-.05-.91,0-.36-.01-.72-.02-1.07Z"/><path class="cls-5" d="m21.14,28.45c.08-.07.17-.07.26-.07,1.03,0,2.06,0,3.08,0,.09,0,.19,0,.26.07-1.2,0-2.4,0-3.61,0Z"/><path class="cls-5" d="m63.51,20.67c.52-.51.39-1.18.4-1.82,0-.12-.01-.25.06-.36.02.79.05,1.57,0,2.36-.1-.11-.02-.27-.1-.39-.14.02-.2.22-.36.2Z"/><path class="cls-5" d="m59.04,24.98c.23-.11.45-.22.68-.34,0,0,0,0,0,0,.05.13.21.04.27.15-.32.04-.62.21-.95.18Z"/><path class="cls-1" d="m37.71,7.72c.25-.3.45-.13.64.09h0c-.21-.09-.41-.14-.64-.08,0,0,0,0,0,0Z"/><path class="cls-5" d="m10.36,74.85c.11.3.05.6.05.91-.04-.3-.08-.6-.05-.91Z"/><path class="cls-5" d="m31.97,27.89c.18-.13.36-.13.54-.02-.18,0-.36.01-.54.02Z"/><path class="cls-1" d="m37.79,7.97c0,.11,0,.22,0,.33h0c-.13-.11-.11-.22,0-.33,0,0,0,0,0,0Z"/><path class="cls-1" d="m38.11,7.97c-.1,0-.21,0-.31,0,0,0,0,0,0,0,.11-.12.21-.12.31,0,0,0,0,0,0,0Z"/><path class="cls-5" d="m60.9,24.53c.03-.18.16-.13.26-.14-.06.1-.17.1-.26.14Z"/><path class="cls-1" d="m38.27,8.05c-.05-.03-.11-.06-.16-.08,0,0,0,0,0,0,.07,0,.12.02.16.08,0,0,0,0,0,0Z"/><path class="cls-1" d="m38.34,7.8s.03.04.05.06c0,0,0,.02,0,.03-.01-.03-.02-.06-.03-.1,0,0,0,0,0,0Z"/><polygon class="cls-1" points="10.34 63.19 10.35 63.19 10.34 63.2 10.34 63.19"/><path class="cls-1" d="m37.87,8.38s.02.01.03.02h-.04s0-.02,0-.02Z"/><path class="cls-1" d="m37.87,8.39s-.05-.06-.08-.08c0,0,0,0,0,0,.03.03.05.05.08.08,0,0,0,0,0,0Z"/><path class="cls-5" d="m46,26.87s.08-.05.13,0c-.04,0-.08,0-.13,0Z"/><path class="cls-3" d="m59.91,10.4c-.32-.05-.58-.24-.87-.36.56-.56,1.73-.61,2.51-.1.74.5,1.13,1.21,1.11,2.15,0,.15,0,.31-.16.39-.12-.17-.25-.34-.37-.51-.08-.82-.6-1.51-1.31-1.7-.3-.08-.63-.19-.9.12Z"/><path class="cls-3" d="m66.53,67.71c.07.36.3.63.43.96.43,1.1.5,2.21.1,3.33-.05.14,0,.19.06.28.8,1.07.8,2.44-.03,3.49-.16.2-.13.31-.03.52.74,1.6.93,3.27.76,5.05-.11,1.14-.45,2.13-1.15,2.99-.5.62-1.13,1.07-1.83,1.39-.19.09-.2.14-.08.31.17.27.26.7.49.81.23.11.59-.1.9-.14,1.28-.18,2.71.56,3.35,1.73.61,1.12.3,2.49-.83,3.45-1.17.99-2.47,1.04-3.82.49-.2-.08-.29-.09-.41.1-.29.47-.61.93-.92,1.39-.87,1.14-1.89,2.06-3.28,2.44-.43.12-.87.19-1.31.25-.05,0-.1,0-.15,0-.09-.03-.18-.03-.27.03-.81.02-1.62,0-2.42-.05-1.12-.17-2.16.08-3.14.67-1.18.71-2.39,1.36-3.72,1.75-.12.03-.22.06-.19.24.13.81-.01,1.55-.61,2.11-.55.52-1.21.79-1.95.91-.96.16-1.86.14-2.66-.52-.8-.65-1.21-1.49-1.05-2.56.05-.32-.04-.45-.32-.57-.61-.28-1.18-.62-1.59-1.19-.07-.1-.13-.12-.26-.08-1.51.49-3.02.3-4.51-.09-.84-.21-1.68-.32-2.54-.08-.02.18.12.3.2.43.51.87.54,1.73.02,2.61-.3.51-.63.99-1.09,1.35-.57.44-1.2.66-1.92.56-.94-.12-1.82-.43-2.58-1.02-.38-.3-.68-.67-.77-1.16-.05-.3-.18-.28-.39-.23-1.3.32-2.62.5-3.95.49-1.47-.01-2.92-.17-4.31-.68-2.6-.95-4.13-2.92-4.86-5.65-.27-1-.42-2.02-.31-3.06.03-.27-.04-.41-.28-.54-.85-.45-1.4-1.17-1.68-2.13l.11-.09c-.65-.93,0-2.6.86-3.24.31-.23.63-.45,1.02-.5.11.38.39.61.69.79.2.12.38.04.52-.15.13-.18.1-.36-.01-.54-.04-.07-.11-.14-.2-.09-.08.05-.02.11,0,.17.05.13.08.28-.06.37-.14.09-.24-.03-.36-.1-.24-.14-.2-.34-.12-.54.54-.23,1.05-.01,1.56.14.47.14.88.43,1.21.81.12.13.2.16.36.06.32-.2.67-.36,1.06-.56-.71-.49-1.25-1.13-1.74-1.81.37,0,.42-.05.32-.17-.22-.24-.38-.6-.78-.58-.59-.96-.87-2-.74-3.14.03-.24,0-.34-.27-.42-1.96-.63-2.76-3.52-1.41-5.13.7-.83,1.66-1.07,2.65-1.04.61.02.93-.1,1.18-.71.26-.64.83-1.05,1.39-1.42.11-.07.21-.14.36-.24-1.13-.46-2.03-1.19-2.82-2.06-.95-1.04-1.49-2.31-1.69-3.73-.03-.18-.16-.36-.08-.56.22.06.35-.08.47-.24.47-.62.67-1.35.58-2.13-.03-.27,0-.62-.32-.78.18-.41.41-.77.7-1.1.14-.16.12-.22-.03-.38-.87-.9-1.07-2.01-.78-3.2.27-1.11,1.05-1.73,2.08-1.95.79-.17,1.58-.09,2.27.41.18.13.26.14.36-.1.77-1.76,3.25-2.85,4.77-2.52.15.03.31-.02.53.15-.19-.55-.37-.99-.45-1.45-.26-1.46.07-2.81.6-4.14.23-.57.5-1.12.86-1.62.08-.12.13-.19,0-.34-1.62-1.81-.78-4.71,1.67-5.44,1.31-.39,2.44.02,3.31,1.17.69-1.06,1.43-2.04,2.48-2.7.18.37.24.81.58,1.09-.97.81-1.75,1.79-2.36,2.91-.63,1.16-1.53,1.97-2.7,2.48-.47.2-.96.39-1.35.74-.97.86-1.41,2.03-1.78,3.25-.45,1.41-.26,2.76.37,4.08.05-.04.08-.06.11-.08,1.35-1.39,2.84-2.5,4.75-2.86.22-.04.26-.12.18-.35-.32-.94-.17-1.78.49-2.53,1.53-1.74,4.05-1.05,5.03.36.09.13.13.23.33.11,1.68-.98,3.48-1.35,5.37-1.05,2.81.44,5.25,1.55,6.57,4.44.2.43.52.62.95.71.77.16,1.56.27,2.29.6.52.24.99.38,1.43-.13.06-.07.16-.09.24-.14.78-.44,1.62-.45,2.47-.42.21,0,.35-.05.48-.2.59-.68.83-1.49.85-2.38,0-.16,0-.33.01-.49.07-.08.06-.18.06-.27,0-.91-.03-1.82.1-2.73.06-.43-.1-.78-.34-1.11-.15-.21-.3-.42-.45-.62-.34-.62-.38-1.34-.57-2.01-.02-.07-.1-.13-.02-.21.1-.11.12.14.23.04-.16-.31-.62-.47-.42-.95,0,0-.05-.04-.06-.04-.25.07-.27-.17-.35-.29-1.19-1.67-2.71-2.68-4.77-2.7-1.67-.01-3.22.45-4.69,1.23-1.45.76-2.97,1.09-4.58.78-.97-.18-1.88-.57-2.81-.9.05-.49.19-.98.09-1.48.43.14.85.27,1.32.42-.05-.44-.13-.86-.02-1.29.41-1.59,2.05-2.81,3.61-2.68.42.04.83.13,1.24.23,1.13.52,1.96,1.36,2.37,2.6.06.2.15.07.24.05.82-.24,1.66-.41,2.51-.48,1.19-.1,2.33.05,3.43.54.18.08.22.03.3-.12.57-1.17,1.85-1.8,3.27-1.62,1.12.14,2.11,1.08,2.41,2.31-.31-.06-1.05.47-1.1.78,0,.07,0,.14.02.2.14.33.39.53.67.7-.03-.25-.2-.37-.34-.53-.13-.14-.17-.3-.03-.44.14-.14.25-.02.38.07.16.12.22.4.49.34-.1,1.2-.62,2.11-1.69,2.62-.21.1-.27.16-.22.44.16.86.41,1.66.97,2.35.37.46.47,1.06.48,1.72.75-.32,1.49-.36,2.24-.1,1.22.42,2.14,1.76,2.13,3.12-.01,1.2-.85,2.33-2.03,2.7-.87.27-1.73.29-2.57-.12-.19-.09-.26-.1-.34.12-.14.39-.38.72-.71,1.04.8.52,1.46,1.17,1.95,2.01.6-.5,1.23-.91,2-1.01,1.51-.19,2.78.68,3.2,2.24.34,1.26.18,2.43-.62,3.46-.14.18-.18.28.03.48.78.72,1.29,1.62,1.53,2.68.08.33.19.4.48.28.39-.16.81-.14,1.2,0,1.39.5,2.93,2.45,1.96,4.49-.64,1.35-2.04,2.14-3.48,1.99-.08,0-.16,0-.24,0-.01-.02-.02-.03-.04-.05,0,.02,0,.03,0,.05.02,0,.03,0,.05,0Zm-35.87,12.21h0c-.08.03-.11.08-.08.17h0c-.12-.01-.12.09-.15.16-.2.31-.36.65-.42,1.01-.25,1.44.1,2.14,1.18,2.56.56.21,1.11.43,1.57.85.33.31.64.65.96.97.03.06.07.13.1.19-.17.04-.12.19-.12.3-.09,1.82,1.05,2.98,2.83,2.87.08.02.16.04.24.05.19.16.41.14.63.16.54.03,1.08-.08,1.61-.17,1.64-.29,3.31-.46,4.89-1.1.51-.21,1.03-.32,1.58-.27.77.08,1.54.18,2.32.25,1.2.1,2.4.08,3.59-.07.74-.09,1.44-.34,2.06-.78,1.36-.96,2.7-1.95,3.65-3.37.82-1.23,1.05-2.56.34-3.96-.23-.83-.73-1.49-1.29-2.11-.55-.62-1.01-1.3-1.16-2.13-.23-1.26-1.01-1.99-2.05-2.48-1.67-.8-3.41-.81-5.18-.47-2.07.41-4.16.69-6.27.64-1.26-.03-2.52-.03-3.75.33-1.23.35-2.37.89-3.17,2-.8,1.1-1.73,2.07-2.76,2.94-.44.37-.84.79-1.06,1.36h0c-.06,0-.08.03-.08.09Zm16.87,19.59c.09.02.15-.01.19-.09.02-.06-.03-.06-.06-.06-.09,0-.14.05-.12.15-.11-.01-.17.04-.17.16-.25-.02-.29.4-.55.31-.77-.27-1.57-.3-2.37-.34-.18,0-.41-.14-.51.02-.1.16.08.35.16.52.03.07.09.13.14.2.51.67,1.21.7,1.93.63.43-.04.84-.21,1.2-.48.06-.05.3-.17.1-.26-.39-.18-.13-.38-.07-.58.12,0,.18-.05.15-.18Zm15.51-15.27c.08.11.18.17.31.14,1.29.09,2.81-1.45,2.85-2.89,0-.08.01-.16.02-.25h0c.17-1.27.03-2.49-.42-3.7-.36-.97-1.08-1.43-1.92-1.78-.22-.09-.43-.2-.65-.3-.74-.36-1.17-.95-1.29-1.8-.11-.73-.23-1.47-.52-2.15-.86-2.01-1.92-2.8-3.88-2.56-1.22.15-2.44.23-3.63-.25-.64-.25-1.28-.49-1.93-.72-1.69-.61-3.41-.78-5.16-.42-1.6.34-2.92,1.24-4.09,2.4-.42.35-.77.75-1.12,1.23,2.04.08,3.98-.25,5.91-.61,1.83-.33,3.65-.34,5.42.3,1.81.66,3.15,1.82,3.59,3.88.16.76.55,1.36,1.03,1.93,1.3,1.56,2.09,3.3,1.85,5.43-.02.18.01.25.21.29.61.14,1.22.31,1.7.79.14.14.33.17.51.18.43.24.72.71,1.22.84h0Zm-48.04-8.47c.18.45.55.71.93.95-.27-.36-.5-.76-.93-.95.97-.22.97-1.12,1.24-1.88-.17.03-.3.04-.43.07-.55.14-1.05.36-1.21,1.03-.09.4-.02.6.4.77Zm46.47-28.12c.34-.25.74-.31,1.13-.4.14-.03.2-.07.19-.24-.09-.92-1.27-1.79-2.14-1.55-.09.02-.17.03-.22.14-.19.41,0,1.23.37,1.51.17.13.35.26.56.28.21.02.05.17.09.24-.31.11-.47.36-.59.65.23-.18.52-.3.6-.64Zm2.69,24.26c.39-.19.79-.29,1.21-.34.09-.01.17.02.21-.12.26-1,.14-1.95-.42-2.79-.36-.53-.52-1.05-.35-1.69.42-1.55.57-3.14.37-4.75-.17-1.43-.75-2.6-2.05-3.25-.49-.24-.96-.51-1.44-.77-.74-.4-1.3-.98-1.59-1.81-.1-.29-.19-.59-.3-.89-.21-.59-.37-1.2-.79-1.68-.03-.2-.17-.33-.29-.47-.24-.3-.57-.48-.84-.73-.82-.75-2.28-.89-3.22-.31.15.12.3.24.44.36,1.68,1.43,2.55,3.27,2.47,5.55-.03,1.02-.34,1.98-.65,2.93-.24.72-.56,1.42-1,2.01-.59.78-1.32,1.45-2.11,2.03-.47.35-.97.68-1.49,1.05.86.32,1.66.63,2.46.91.97.34,1.96.1,2.94.03,1.85-.13,3.35.52,4.44,2.14.62.92,1,1.96,1.26,3.08.26-.17.5-.33.74-.49Zm-47.64-7.01c.18.69.55,1.27.98,1.82,1.12,1.44,2.77,1.82,4.32,2.4.11.04.24.02.35,0,1.02-.05,2.02.1,3.02.31,1.42.3,2.83.48,4.26.09.33-.09.67-.17,1.05-.36-1.34-.26-2.38-.87-3.22-1.87-.59-.71-.89-1.56-1.13-2.44-.22-.82-.58-1.53-1.19-2.11-.21-.2-.41-.43-.62-.64-1.08-1.09-1.48-2.4-1.22-3.96.25-1.49.81-2.84,1.6-4.1.14-.22.47-.49.36-.67-.16-.24-.54-.21-.85-.17-1.07.02-1.97.45-2.66,1.3-.46.57-.59,1.3-.81,1.99-.3.97-.72,1.84-1.66,2.3-.77.38-1.38.95-1.9,1.65-1,1.34-1.22,2.83-.7,4.44Zm46.67,26.14c.82-1.34,1.03-2.74.21-4.1-.5-.83-1.3-1.27-2.02-1.82-.56-.43-1.13-.85-1.81-1.06-.06-.09-.17-.06-.25-.11-.33-.21-.51-.06-.65.27-.16.36-.4.68-.64.99-.69.91-1.58,1.58-2.41,2.32-1.55,1.37-3.3,2.13-5.36,2.11-1.2,0-2.41.06-3.6-.14-.9-.15-1.76-.23-2.62.19-.26.13-.3.18-.15.44.45.74.66,1.58.6,2.44-.09,1.41-.68,2.6-1.71,3.52-.26.23-.24.3.05.45,1.57.83,3.23.94,4.93.67,1.53-.24,2.91-.93,4.25-1.7,1.12-.64,2.29-1.11,3.61-1,1,.09,2,.13,3,.1,1.93-.06,3.94-1.63,4.57-3.58Zm-45.98-12.37c-.21.82-.02,1.58.34,2.31.58,1.17,1.51,2,2.51,2.76.14.1.25.04.37,0,1.19-.35,2.4-.38,3.6-.13,1.38.29,2.74.32,4.09-.15.24-.08.33-.15.26-.43-.24-.96-.16-1.92.19-2.83.49-1.25,1.25-2.29,2.23-3.17.32-.28.71-.5.9-.92.55-1.23,1.42-2.17,2.45-2.98.75-.59,1.59-1.02,2.53-1.38-.49-.3-.91-.58-1.4-.71-.96-.43-1.95-.67-2.99-.33-.34.11-.68.23-1.01.35-1.89.72-3.8.92-5.78.48-1.16-.25-2.32-.51-3.52-.44-1,.06-1.85.48-2.62,1.12-.64.54-.67,1.33-.73,2.1-.09,1.25-.45,2.4-1.09,3.46-.16.27-.28.56-.33.88Zm-.86,16.39c.58,1.32,1.61,2.13,2.88,2.59,1.75.63,3.56.72,5.38.5,2.29-.27,4.48-.96,6.55-2.04.95-.5,1.96-.87,3.04-.94.95-.07,1.86.15,2.76.39,1.36.36,2.71.45,3.99-.28,1.91-1.08,2.26-2.88,1.62-4.74-.06-.18-.15-.36-.4-.31-.48.1-.95.21-1.43.27-1.13.16-2.23.51-3.39.47-.89-.03-1.67-.32-2.36-.9-.82-.68-1.35-1.61-1.98-2.46-.63-.84-1.15-1.84-2.3-2.04-.03,0-.06,0-.08-.02-.32-.29-.76-.38-1.08-.67-.08-.07-.17-.15-.28-.06-.64.51-1.41.7-2.15.97-1.07.13-2.14.09-3.19-.17-1.38-.34-2.69-.12-3.98.38-.94.36-1.83.85-2.68,1.4-.39.26-.74.58-1,.98-1.36,2.06-1.04,4.66.08,6.67Zm8.94-37.54c-.49,1.46-.42,2.42.6,3.33,1.1.99,1.89,2.21,2.21,3.73.04.19.12.36.18.54.36.99,1.07,1.58,1.99,1.92.19.07.39.26.54.23.21-.05.41-.03.61-.01.66.07,1.32.1,1.97,0,.78-.12,1.55-.32,2.33-.43,1.57-.24,3.12-.09,4.64.36.56.17,1.11.16,1.67-.02.6-.19,1.17-.53,1.81-.52.31,0,.59-.05.87-.18,1.26-.59,2.59-.85,3.96-.8.73.03,1.36-.27,1.92-.64.84-.56,1.68-1.13,2.48-1.77,1.51-1.2,2.26-2.82,2.51-4.74.24-1.92-.52-3.36-1.95-4.49-1.01-.8-2.15-1.21-3.37-1.4-1.3-.2-2.25-.86-2.79-2.14-.08-.2-.19-.39-.3-.58-.49-.82-1.25-1.29-2.05-1.69-2.57-1.27-5.07-1.24-7.48.45-.36.25-.71.53-1.07.78-1.21.86-2.59,1.1-4,1.26-.95.11-1.86.32-2.69.84-1.28.81-2.32,1.89-3.21,3.13-.62.86-1.15,1.78-1.4,2.84Zm10.17,11.42c.07.15.19.14.28.18.96.43,1.83.98,2.47,1.86.21.28.42.34.73.33.7-.03,1.38-.06,1.52-1.01.01-.09.09-.17.13-.25.13-.24.36-.42.45-.67-1.85-.39-3.67-.99-5.58-.44Zm27.88-13.17c.18,0,.37.02.55,0,.45-.07.55-.23.46-.69-.27-1.44-1.39-1.94-2.58-1.17-.11.07-.21.14-.18.32.15.91.88,1.57,1.75,1.54Zm-17.07-20.45c-.34-.49-.76-.79-1.26-.96-.99-.34-1.89-.12-2.45.57-.2.25-.2.41.11.55.49.22,1.02.32,1.53.27.69-.06,1.37-.21,2.07-.44Zm-16.18,5.21c-.95-1-2.79-.5-3.27.89-.13.39-.08.47.31.42.62-.08,1.24-.18,1.78-.54.23-.16.43-.11.62.12.12.15.24.35.45.39.05-.09.02-.13,0-.17-.15-.22-.52-.36-.47-.6.04-.2.38-.33.58-.5Zm37.63,25.5c.08,0,.09.01.1,0,.45-.24.63-.84,1.18-.96.03,0,.05-.12.07-.18.22-.79-.52-2.09-1.3-2.27-.05-.01-.1-.02-.16-.02-.18,0-.3.02-.24.28.08.36.09.74.14,1.1.07.56.1,1.2.93,1.17-.22.34-.54.51-.71.87Zm-54.96,21.07c.04-.33-.22-.42-.34-.58-.09-.11-.2-.22-.09-.35.12-.13.27-.08.39.03.24.23.42.47.29.86-.07.21-.06.52.12.64.17.1.34-.13.49-.27.06-.06.13-.1.18-.16.28-.37.62-.72.6-1.26,0-.22-.08-.29-.29-.26-.36.06-.74-.44-.62-.8.03-.09.07-.16-.02-.21-.09-.06-.15.03-.2.09-.15.16-.15.34-.03.52.07.1.16.18.23.28.18.27.02.47-.16.64-.2.19-.27-.06-.37-.15-.15-.14-.28-.29-.51-.26-.24.03-.81.68-.81.93,0,.3.34.68.69.77-.08-.24-.28-.37-.42-.54-.09-.12-.11-.26,0-.38.12-.14.23-.07.35.02.17.14.29.35.53.46Zm43.3-51.59c.41.32.75.65,1.1.97.32.29.71.52,1.15.6.43.07.63-.14.52-.57-.07-.27-.17-.52-.35-.73-.58-.68-1.5-.8-2.42-.26Zm-39.54,21.15c.07.14-.13.51.29.41.81-.2,1.37-.76,1.84-1.44.1-.14.07-.25-.09-.31-.77-.31-2.09.09-2.04,1.35Zm14.38,43.66c.64,0,1.53-.83,1.59-1.48.02-.16,0-.34-.11-.42-.12-.09-.24.05-.35.12-.47.32-.94.65-1.36,1.06-.16.16-.4.37-.35.54.07.22.38.16.57.18Zm36.08-10.41c.43-.02.71-.18,1.01-.27.26-.08.22-.24.1-.4-.21-.29-.48-.51-.79-.66-.26-.12-.57-.32-.81-.12-.28.23-.09.59-.02.89.08.32.23.59.52.56Zm-31.68-43.22c-.84-.39-1.54-.39-2.17.21-.13.12-.3.25-.22.43.1.21.3.35.55.3.12-.03.23-.13.36-.16.45-.11.79-.71,1.36-.27-.1-.21-.36-.39.12-.52Zm29.04,26.43c.44.61,1.07.72,1.69.82.44.07.49-.01.34-.46-.15-.47-.42-.68-.91-.69-.4,0-.77.12-1.12.32Zm-3.38,10.98c.14.42.46.64.74.9.19.17.39.13.56-.06.17-.19.13-.41.03-.61-.04-.07-.11-.14-.19-.1-.1.05-.04.14,0,.21.07.12.09.23-.02.33-.13.12-.24.04-.36-.04-.29-.2-.31-.41-.02-.63.08-.06.19-.17.09-.27-.1-.11-.21.02-.26.1-.14.22-.31.32-.58.17Zm-3.31-44.85c.11-.19.05-.37.05-.55,0-.08-.01-.15-.13-.16-.33-.01-.61.39-.49.73.18.49.76.67,1.09.17.06-.1.25-.18.16-.28-.12-.15-.23.02-.31.12-.17.19-.36.28-.6.15-.13-.08-.15-.22-.14-.36,0-.07.04-.15.12-.14.14.03.06.19.14.27.02.02.04.03.1.06Zm-40.39,42.12c-.03-.14.07-.34-.13-.39-.18-.05-.33.06-.44.22-.2.29-.1.57.12.77.22.21.49.27.75.05.07-.07.25-.14.13-.29-.1-.12-.18.03-.25.09-.12.11-.26.14-.4.06-.14-.07-.21-.21-.23-.37-.01-.09.04-.17.12-.19.08-.02.11.05.12.12.01.1.01.23.13.2.14-.03.05-.19.08-.28Zm41.22-43.88c-.36.01-.6.43-.45.77.04.1.09.18.2.15.1-.02.09-.13.08-.2-.03-.21.03-.34.25-.38.09-.02.23-.05.21-.19-.02-.17-.17-.13-.28-.15Zm.33.2c.13.33.26.48.53.56-.06-.3-.25-.39-.53-.56Z"/><path class="cls-3" d="m35.81,36.27c.52-.25,1.06-.36,1.63-.33.14.34.46.6.39,1.03-.03.18-.03.32-.25.31-.17-.01-.37.07-.36-.26.01-.23-.11-.43-.35-.38-.27.06-.29.28-.19.52.02.06.05.13.07.19-.13.04-.27.08-.4.12-.27-.02-.4-.2-.5-.44-.1-.26.03-.51-.03-.76Z"/><path class="cls-4" d="m36.74,37.35c-.02-.06-.05-.13-.07-.19-.09-.24-.07-.46.19-.52.25-.05.36.15.35.38-.01.33.19.25.36.26.23.02.23-.13.25-.31.07-.43-.25-.69-.39-1.03.31-.07.62-.07.93-.02-.17.01-.16.06-.09.22.17.38.31.78.13,1.2-.56,0-1.11,0-1.67.01Z"/><path class="cls-1" d="m15.34,60.45c.32.16.29.51.32.78.08.78-.11,1.51-.58,2.13-.11.15-.25.29-.47.24.02-.03.05-.06.07-.09.1-.29.21-.58.31-.88.17-.5.24-1,.07-1.52.04-.24.14-.46.27-.66Z"/><path class="cls-4" d="m34.31,38.34c-.34-.28-.4-.72-.58-1.09.23-.2.5-.33.77-.46.02.44.35.77.41,1.19-.19.14-.38.28-.6.35Z"/><path class="cls-4" d="m35.81,36.27c.06.25-.07.5.03.76.1.25.22.43.5.44-.22.07-.45.13-.67.2-.36-.31-.49-.72-.48-1.2.21-.07.39-.22.63-.2Z"/><path class="cls-4" d="m39.48,36.13c.1.5-.04.99-.09,1.48-.16-.05-.32-.1-.48-.15.16-.47.04-.95.02-1.42.19-.03.36.07.55.1Z"/><path class="cls-3" d="m35.18,36.47c0,.47.12.89.48,1.2-.25.1-.5.21-.75.31-.06-.43-.39-.75-.41-1.19.21-.15.43-.25.67-.32Z"/><path class="cls-3" d="m38.93,36.03c.02.47.14.95-.02,1.42-.17-.04-.34-.08-.51-.11.18-.43.05-.82-.13-1.2-.07-.16-.08-.21.09-.22.19.03.39,0,.56.11Z"/><path class="cls-1" d="m14.07,84.16c-.08.21-.12.41.12.54.11.07.22.18.36.1.14-.09.11-.23.06-.37-.02-.06-.08-.13,0-.17.09-.05.15.02.2.09.11.17.14.36.01.54-.13.19-.32.26-.52.15-.31-.18-.59-.41-.69-.79.14-.11.3-.12.47-.09Z"/><path class="cls-3" d="m15.07,61.12c.17.52.1,1.02-.07,1.52-.1.29-.21.58-.31.88-.09-.84.05-1.63.38-2.4Z"/><path class="cls-1" d="m16.04,82.04c.4-.02.56.34.78.58.11.12.05.16-.32.17,0,0,0-.02,0-.02.03-.1.09-.22-.1-.15-.16-.17-.26-.38-.36-.59Z"/><path class="cls-6" d="m56.08,96.53c.81.06,1.61.07,2.42.05.09.03.18.04.27-.03.05,0,.1,0,.15,0-.02.09-.07.14-.17.14-.84,0-1.67,0-2.51,0-.09,0-.15-.05-.16-.14Z"/><path class="cls-3" d="m16.4,82.63c.19-.07.13.05.1.15-.03-.05-.07-.1-.1-.15Z"/><path class="cls-3" d="m11.61,88.09c-.02-.08-.06-.18.02-.21.07-.04.09.06.09.12-.04.03-.07.06-.11.09Z"/><path class="cls-1" d="m60.24,37.22c-.27.06-.33-.22-.49-.34-.12-.09-.24-.21-.38-.07-.14.14-.09.3.03.44.14.15.31.28.34.53-.29-.17-.54-.37-.67-.7-.02-.06-.03-.14-.02-.2.05-.31.79-.84,1.1-.78.05.04.04.09.02.15-.13.06-.34-.03-.39.19-.05.21.1.32.24.43.08.07.16.13.25.2,0,.06-.01.11-.02.17Z"/><path class="cls-3" d="m60.26,37.06c-.08-.07-.16-.13-.25-.2-.14-.11-.28-.22-.24-.43.05-.22.26-.13.39-.19.11.26.12.54.09.82Z"/><path class="cls-6" d="m47.39,10.3c2.21.03,4.4.16,6.59.56.91.17,1.81.32,2.69.59.1.03.2.07.29.12.22.12.4.3.36.58-.04.26-.23.38-.48.41-.97.1-1.94.21-2.91.11-.66-.07-1.31-.05-1.97-.11-2.38-.21-4.76-.27-7.14-.17-1.79.07-3.57.16-5.36.25-1.39.07-2.76.29-4.14.46-2.92.37-5.8.94-8.67,1.59-.6.14-1.2.31-1.79.5-.34.11-.68.09-1.02.08-.29-.01-.5-.21-.59-.47-.1-.27-.03-.55.18-.76.4-.4.9-.62,1.4-.81,1.68-.62,3.44-.89,5.17-1.26,1.64-.36,3.3-.63,4.96-.87,1.24-.18,2.5-.33,3.76-.38,1.6-.07,3.2-.2,4.8-.25,1.29-.05,2.57-.16,3.86-.15Z"/><path class="cls-3" d="m29.9,19.79c.09.89.18,1.78.26,2.67.03.33.07.66-.03.98-.11.36-.32.6-.7.63-.37.03-.63-.16-.79-.49-.19-.39-.22-.82-.26-1.24-.08-.73-.14-1.47-.21-2.21-.05-1.29-.17-2.59-.04-3.89.01-.14.03-.27.06-.41.08-.34.28-.56.63-.58.37-.02.55.23.65.55.15.52.18,1.06.23,1.59.07.8.13,1.59.2,2.39Z"/><path class="cls-3" d="m40.81,18.47c.06.86.11,1.73.17,2.59.02.4.06.8.06,1.2,0,.51-.28.87-.72.93-.42.05-.8-.23-.89-.74-.08-.43-.09-.87-.12-1.31-.06-.83-.04-1.67-.16-2.5-.04-.98-.08-1.96-.11-2.94-.02-.55.15-.89.45-.9.41-.02.59.31.72.65.29.76.4,1.57.51,2.37.03.22.06.44.1.65Z"/><path class="cls-3" d="m49.51,23.07c-.09-.09-.19-.18-.28-.28-.33-.94-.32-1.94-.51-2.9-.13-.67-.23-1.35-.35-2.02-.08-.77-.22-1.52-.23-2.3,0-.18,0-.36,0-.54.01-.31.14-.55.44-.6.31-.05.5.15.6.43.3.81.44,1.67.63,2.51.03.12.06.24.09.36.09.61.16,1.22.38,1.81,0,.11.01.21.02.32,0,.01-.01.02-.01.04,0,.02.01.05.02.07.12.6.22,1.2.23,1.82-.02.05,0,.09.04.12-.02.21-.03.41-.05.61-.3.55-.47.65-1.03.55Z"/><path class="cls-3" d="m21.26,22.85c0,.15,0,.3,0,.45,0,.3-.01.6-.02.9-.01,0-.04,0-.04,0-.2.37-.45.66-.9.54-.46-.13-.55-.55-.62-.96-.14-.86-.16-1.72-.21-2.59-.03-1.06-.13-2.12.02-3.17,0-.04,0-.08,0-.12.07-.6.38-.98.79-.97.41,0,.67.34.71.97.07,1.15.12,2.31.18,3.46,0,.07,0,.13,0,.2.02.43.05.86.07,1.29Z"/><path class="cls-3" d="m57.68,16.72c.05.64.1,1.29.16,1.93.08.74.1,1.48,0,2.21,0,.06-.01.12-.02.17-.04.1-.07.2-.11.3-.2.3-.46.51-.83.4-.46-.13-.52-.56-.6-.97-.08-.79-.04-1.58-.06-2.37,0-.11,0-.23,0-.34-.04-1.14-.1-2.28-.13-3.43,0-.35-.03-.79.42-.86.42-.07.56.33.68.66.27.74.36,1.52.5,2.28Z"/><path class="cls-1" d="m50.32,19.97s-.02-.04-.02-.07c0-.01,0-.02.01-.04.09-.11.1-.22-.02-.32-.21-.58-.28-1.2-.38-1.81.94-.21,1.9-.25,2.85-.38.3-.04.6-.06.9-.1.2-.03.31.07.44.21.14.15.16.24.01.4-1.13,1.17-2.26,2.36-3.39,3.54-.02.02-.05.02-.08.03-.14-.48-.01-1.04-.34-1.47Z"/><path class="cls-1" d="m56.21,18.06c0,.11,0,.23,0,.34-.19.29.05.65-.15.94,0,0,0,0,0,0-.25-.44-.58-.79-1.03-1,0,0,0,0,0,0,.01-.23-.1-.34-.32-.33,0,0,0,0,0,0-.17-.4.05-.83.48-.93.04,0,.08-.02.11-.03q.72-.15.75.6c0,.15-.01.3.14.4Z"/><path class="cls-1" d="m59.91,10.4c.27-.31.6-.2.9-.12.72.19,1.23.88,1.31,1.7-.64-.68-1.42-1.13-2.21-1.58Z"/><path class="cls-5" d="m21.26,22.85c-.02-.43-.05-.86-.07-1.29.24.42.15.85.07,1.29Z"/><path class="cls-5" d="m35.65,22.66c.21.05.35.19.4.42-.22-.05-.35-.19-.4-.42Z"/><path class="cls-5" d="m34.38,21.33c.21.05.35.19.4.42-.22-.05-.35-.19-.4-.42Z"/><path class="cls-5" d="m35.02,21.99c.21.05.35.19.4.42-.22-.05-.35-.19-.4-.42Z"/><path class="cls-5" d="m33.75,20.67c.21.05.35.19.4.42-.22-.05-.35-.19-.4-.42Z"/><path class="cls-5" d="m21.24,24.2c0-.3.01-.6.02-.9.08.3.13.6-.02.9Z"/><path class="cls-5" d="m34.78,21.74c.15,0,.23.1.24.25-.15-.01-.23-.09-.24-.25Z"/><path class="cls-5" d="m35.41,22.41c.15,0,.23.1.24.25-.15-.01-.23-.09-.24-.25Z"/><path class="cls-5" d="m33.51,20.42c.15,0,.23.1.24.25-.15-.01-.23-.09-.24-.25Z"/><path class="cls-5" d="m34.15,21.08c.15,0,.23.1.24.25-.15-.01-.23-.09-.24-.25Z"/><path class="cls-5" d="m39.21,26.39c-.21-.05-.35-.19-.4-.41h0c.21.05.35.19.4.41h0Z"/><path class="cls-5" d="m38.19,25.31c.21.05.35.19.4.41h0c-.21-.05-.35-.19-.4-.41h0Z"/><path class="cls-5" d="m37.55,24.65c.21.05.35.19.4.41h0c-.21-.05-.35-.19-.4-.41h0Z"/><path class="cls-5" d="m39.21,26.39c.15,0,.22.1.24.25h0c-.14-.01-.23-.09-.24-.25,0,0,0,0,0,0Z"/><path class="cls-5" d="m38.82,25.98c-.15-.01-.23-.09-.24-.25,0,0,0,0,0,0,.15,0,.22.1.24.25h0Z"/><path class="cls-5" d="m37.95,25.06c.15,0,.22.1.24.25h0c-.15-.01-.23-.09-.24-.25,0,0,0,0,0,0Z"/><path class="cls-5" d="m37.32,24.4c.15,0,.22.1.24.25h0c-.15-.01-.23-.09-.24-.25,0,0,0,0,0,0Z"/><path class="cls-5" d="m39.69,26.89s.08.04.12.06c0,0-.01.06-.03.06-.08.01-.1-.05-.1-.12,0,0,0,0,0,0Z"/><path class="cls-5" d="m39.53,26.72c.11,0,.15.07.16.17,0,0,0,0,0,0-.1,0-.15-.06-.16-.17,0,0,0,0,0,0Z"/><path class="cls-5" d="m49.03,23.16s-.02-.01-.03-.02c0,0,.02.01.03.02,0,0,0,0,0,0Z"/><path class="cls-5" d="m39.45,26.64s.05.06.08.08c0,0,0,0,0,0-.03-.03-.05-.06-.08-.08,0,0,0,0,0,0Z"/><path class="cls-5" d="m57.89,21.25c.26.01.35.24.5.41.41.44.83.87,1.24,1.31.1.1.23.19.23.36-.22-.03-.32-.23-.46-.37-.44-.45-.88-.91-1.31-1.37-.09-.1-.21-.18-.21-.33Z"/><path class="cls-5" d="m59.87,23.32c.13-.01.24.03.3.15.16.31.33.29.52.04.07-.09.16-.19.29-.19-.16.35-.41.62-.8.89.23-.49-.23-.59-.31-.88Z"/><path class="cls-5" d="m55.04,18.34c.45.21.78.56,1.03,1-.46-.2-.76-.58-1.03-1Z"/><path class="cls-5" d="m56.07,19.34c.2-.29-.04-.65.15-.94.03.79-.01,1.58.06,2.37-.17-.08-.12-.25-.13-.39-.02-.35.03-.7-.08-1.04Z"/><path class="cls-5" d="m50.55,22.52c.02-.2.03-.41.05-.61.14.22.18.43-.05.61Z"/><path class="cls-5" d="m61.06,23.24c.02-.2.14-.3.32-.33-.03.19-.13.31-.32.33Z"/><path class="cls-5" d="m62.33,21.91c.02-.2.14-.3.32-.33-.03.19-.13.31-.32.33Z"/><path class="cls-5" d="m54.73,18.01c.22,0,.33.1.32.33-.19-.03-.22-.21-.32-.33Z"/><path class="cls-5" d="m61.69,22.58c.02-.2.14-.3.32-.33-.03.19-.13.31-.32.33Z"/><path class="cls-5" d="m62.96,21.25c.02-.2.14-.3.32-.33-.03.19-.13.31-.32.33Z"/><path class="cls-5" d="m61.38,22.91c.01-.16.09-.24.24-.25-.01.15-.09.24-.24.25Z"/><path class="cls-5" d="m62.64,21.58c.01-.16.09-.24.24-.25-.01.15-.09.24-.24.25Z"/><path class="cls-5" d="m62.01,22.24c.01-.16.09-.24.24-.25-.01.15-.09.24-.24.25Z"/><path class="cls-5" d="m57.71,21.34l.11-.3c.08.05.08.13.08.21-.06.03-.13.06-.19.09Z"/><path class="cls-5" d="m59.95,24.4c0,.11-.05.17-.16.17h0c0-.11.05-.17.16-.17h0Z"/><path class="cls-5" d="m63.35,20.83c0-.11.05-.17.16-.17,0,.11-.06.16-.16.17Z"/><path class="cls-5" d="m59.95,24.4c0-.07.01-.13.1-.13,0,0,.03.02.03.03,0,.09-.06.1-.12.1h0Z"/><path class="cls-5" d="m60.62,24.11s.04-.02.06-.02c0,0,.02.02.02.03,0,0-.02.03-.02.03-.02,0-.04-.02-.06-.03Z"/><path class="cls-5" d="m60.98,23.32s.05-.06.08-.09c-.03.03-.05.06-.08.09Z"/><polygon class="cls-5" points="60.78 24.29 60.77 24.27 60.8 24.27 60.78 24.29"/><path class="cls-5" d="m59.79,24.57s-.05.06-.08.08c0,0,0,0,0,0,.03-.03.05-.06.08-.08h0Z"/><path class="cls-5" d="m63.27,20.92s.05-.06.08-.09c-.03.03-.05.06-.08.09Z"/><path class="cls-5" d="m62.88,21.33s.05-.06.08-.09c-.03.03-.05.06-.08.09Z"/><path class="cls-5" d="m62.25,22s.05-.06.08-.09c-.03.03-.05.06-.08.09Z"/><path class="cls-5" d="m61.61,22.66s.05-.06.08-.09c-.03.03-.05.06-.08.09Z"/><path class="cls-5" d="m57.83,20.86c.11-.74.08-1.48,0-2.21.21.3.21,1.93,0,2.21Z"/><path class="cls-2" d="m25.27,57.52c.25-1.07.77-1.99,1.4-2.84.9-1.23,1.93-2.32,3.21-3.13.83-.52,1.74-.74,2.69-.84,1.41-.16,2.79-.39,4-1.26.36-.26.71-.53,1.07-.78,2.41-1.7,4.92-1.72,7.48-.45.8.39,1.56.87,2.05,1.69.11.19.21.38.3.58.54,1.28,1.49,1.94,2.79,2.14,1.22.19,2.37.6,3.37,1.4,1.43,1.13,2.19,2.57,1.95,4.49-.14,0-.21.11-.29.19-.46.46-.94.88-1.44,1.28-1.18.95-2.46,1.68-3.9,2.1-1.28.37-2.58.63-3.88.91-1.12.24-2.25.38-3.39.5.11-.09.23-.18.35-.27,1.13-.88,1.01-2.83-.17-3.64-1.34-.91-3.08.46-3.25,1.68-.12.89.07,1.65.66,2.3-.76.09-1.51.19-2.27.26-.3.03-.59.08-.9.06-.81-.05-1.46-.51-2.15-.86-.1-.05-.21-.19-.3-.03-.07.13,0,.27.11.36.13.1.27.09.41.03.09-.04.16-.03.2.07.04.1-.03.15-.1.2-.17.11-.36.15-.52.04-.19-.13-.48-.31-.4-.56.17-.54-.22-.63-.5-.82-.34-.21-.69-.4-1.03-.6-1.05-.61-2.23-.9-3.34-1.37-1.56-.67-2.96-1.6-4.19-2.81Zm15.8-8.72c-.8-.04-1.9.51-3,1.1-.76.41-1.36,1-1.71,1.83-.5,1.19.39,2.64,1.62,2.52.52-.05,1-.24,1.46-.46.79-.38,1.59-.75,2.44-.93,1.24-.26,2.49-.35,3.76-.12.63.11,1.01-.45.77-1.09-.07-.19-.16-.37-.28-.54-1.16-1.58-2.72-2.27-5.06-2.32Zm-10.87,7.02c0,.17-.02.33,0,.5.22,1.71,1.02,2.95,2.93,2.69,1.38-.19,2.59-1.5,2.51-2.87-.04-.74-.38-1.37-.79-1.95-.71-.99-1.9-1.39-3.03-.94-1.04.42-1.71,1.2-1.63,2.58Zm18.35-1.46c-.12,0-.24,0-.36,0-1,.05-1.67.61-1.81,1.56-.07.51.02,1.07.32,1.41.59.69,1.4.87,2.28.68.63-.14,1.16-.43,1.37-1.1.37-1.22-.57-2.53-1.79-2.55Zm5.44,2.55c-.06-1.02-.47-1.77-1.29-2.26-.27-.16-.58-.21-.84.05-.26.26-.24.56-.06.87.07.13.15.26.23.38.32.46.43.94.16,1.46-.04.08-.07.18-.09.27-.12.39.03.68.32.89.28.2.56.17.83-.05.5-.43.68-1.01.74-1.62Zm-26.79-.5c0,.08,0,.17,0,.25.02.44.27.79.6.87.32.07.6-.14.79-.58.23-.54.42-1.09.72-1.6.24-.42.19-.76-.17-1.06-.28-.23-.61-.23-.92-.01-.7.52-.94,1.29-1.02,2.14Z"/><path class="cls-2" d="m30.73,79.82c.22-.56.62-.98,1.06-1.36,1.03-.87,1.96-1.84,2.76-2.94.8-1.11,1.94-1.65,3.17-2,1.23-.35,2.49-.36,3.75-.33,2.12.06,4.2-.23,6.27-.64,1.77-.35,3.51-.33,5.18.47,1.04.5,1.82,1.22,2.05,2.48.15.83.61,1.51,1.16,2.13.55.62,1.05,1.27,1.29,2.11-.11-.1-.22-.06-.33,0-.5.33-1.03.62-1.46,1.04-.99.97-2.09,1.79-3.09,2.75-.02.02-.12.33-.21.02.09-.86-.27-1.52-.85-2.06-.8-.74-1.67-.55-2.54-.16-.37.16-.63.45-.78.83-.32.79-.2,1.53.26,2.22-.68-.09-1.37-.2-2.04-.13-1.22.11-2.43.24-3.66.23-.67,0-1.27-.2-1.84-.54-.9-.54-1.83-.98-2.86-1.14.74-.77,1.06-1.69.79-2.77-.31-1.21-.83-1.83-1.89-1.8-1.39.04-2.76,1.54-2.22,3.25-.13-.03-.25-.06-.38-.09-1.27-.34-2.54-.66-3.58-1.58Zm23.66-1.73c0-.41-.04-.76-.17-1.1-.47-1.21-1.29-2.08-2.38-2.69-.89-.5-2.05-.16-2.56.79-.32.59-.39,1.85.59,2.43.87.52,1.66,1.1,2.34,1.9.5.6,1.45.42,1.86-.26.21-.34.37-.7.32-1.07Zm-6.32-1.21c0-.74-.46-1.52-1.22-1.94-.72-.4-1.49-.49-2.21-.02-.73.48-1.09,1.24-1.25,2.1-.14.78.08,1.49.6,2.05.52.57,1.14.76,1.94.52,1.13-.35,2.13-1.52,2.14-2.71Zm-7.48.27c.11,0,.21,0,.32,0,.56-.03.91-.29,1.05-.77.11-.4-.09-.94-.48-1.22-.66-.48-1.4-.63-2.2-.58-.79.05-1.52.32-2.25.57-.67.23-1.19.71-1.44,1.43-.22.62.14,1.1.77,1.09.19,0,.36-.04.53-.12.68-.31,1.39-.47,2.14-.48.53,0,1.05.09,1.57.08Z"/><path class="cls-4" d="m58.04,47.88c-.02.9-.26,1.71-.85,2.38-.14.16-.28.21-.48.2-.85-.04-1.69-.02-2.47.42-.08.05-.18.07-.24.14-.44.52-.9.37-1.43.13-.73-.33-1.52-.45-2.29-.6-.43-.09-.75-.28-.95-.71-1.31-2.9-3.76-4-6.57-4.44-1.89-.3-3.7.08-5.37,1.05-.2.11-.24.01-.33-.11-.98-1.41-3.5-2.1-5.03-.36-.66.75-.81,1.59-.49,2.53.08.23.04.31-.18.35-1.91.35-3.41,1.47-4.75,2.86-.03.03-.06.05-.11.08-.63-1.32-.83-2.66-.37-4.08.09.1.18.02.25-.02,1.06-.5,2.19-.78,3.3-1.1.5-.15.99-.31,1.34-.72.26-.31.55-.59.85-.86.83-.75,1.71-1.4,2.83-1.63.88-.18,1.74-.12,2.61.09.43.25.87.43,1.37.43.97.13,1.94.16,2.89-.08,1.64-.41,3.29-.63,4.94-.17.91.25,1.82.25,2.73.23.3.31.62.58,1.05.67,1.05.22,1.93-.16,2.72-.84.73-.15,1.47-.28,2.2-.45.75-.18,1.49-.41,2.24-.62.15.21.3.41.45.62.23.33.4.69.34,1.11-.13.91-.09,1.82-.1,2.73,0,.1.01.2-.06.27v-1.73c-.03.74-.14,1.48-.01,2.22Z"/><path class="cls-4" d="m25.27,57.52c1.23,1.21,2.63,2.15,4.19,2.81,1.11.47,2.28.76,3.34,1.37.34.2.7.39,1.03.6.28.18.67.27.5.82-.08.25.21.43.4.56.16.11.36.07.52-.04.07-.05.14-.1.1-.2-.04-.09-.11-.1-.2-.07-.14.06-.28.07-.41-.03-.12-.09-.19-.23-.11-.36.09-.16.2-.03.3.03.69.36,1.34.81,2.15.86.31.02.6-.03.9-.06.76-.07,1.51-.17,2.27-.26,0,0-.02,0-.02,0,.03.09.11.08.18.09.17.06.34.12.52.16.62.16,1.18-.08,1.74-.33,1.14-.12,2.27-.27,3.39-.5,1.3-.27,2.6-.54,3.88-.91,1.44-.42,2.72-1.15,3.9-2.1.5-.4.99-.82,1.44-1.28.08-.08.15-.2.29-.19-.25,1.92-1.01,3.54-2.51,4.74-.8.64-1.64,1.21-2.48,1.77-.56.37-1.19.66-1.92.64-1.37-.05-2.7.21-3.96.8-.28.13-.56.19-.87.18-.65-.02-1.21.32-1.81.52-.56.18-1.12.18-1.67.02-1.53-.45-3.07-.6-4.64-.36-.78.12-1.55.31-2.33.43-.65.1-1.31.08-1.97,0-.2-.02-.4-.04-.61.01-.15.03-.35-.16-.54-.23-.92-.34-1.64-.93-1.99-1.92-.06-.18-.14-.36-.18-.54-.32-1.52-1.11-2.73-2.21-3.73-1.02-.91-1.09-1.87-.6-3.33Zm7.6,8.42c0-.25-.71-1.21-.91-1.25-.04,0-.11.02-.13.05-.06.08,0,.15.05.21.19.21.39.41.58.62.12.13.24.28.11.47-.1.16-.25.14-.39.09-.22-.07-.2-.26-.17-.44.02-.1.13-.22-.03-.27-.14-.04-.22.09-.26.2-.08.25.03.45.2.63.18.19.4.28.65.18.21-.09.33-.27.3-.5Zm.92-2.12c.02.13.03.22.06.31.03.1.14.13.17.04.07-.19.1-.42-.03-.59-.13-.16-.29-.06-.42.04-.19.15-.24.35-.18.59.14.59.67.68,1.16.2.08-.08.27-.17.15-.32-.14-.17-.22.04-.31.11-.08.05-.13.14-.21.18-.15.07-.32.09-.44-.05-.13-.15-.12-.32.05-.51Zm-.82.85c.06-.14.08-.27-.06-.3-.16-.03-.17.14-.19.25-.07.35.17.53.38.71.1.09.2.32.34.16.09-.11-.1-.25-.19-.35-.14-.14-.3-.27-.27-.48Z"/><path class="cls-4" d="m52.34,83.56c.09.31.19,0,.21-.02.99-.96,2.1-1.78,3.09-2.75.43-.42.96-.71,1.46-1.04.11-.07.21-.11.33,0,.71,1.4.48,2.73-.34,3.96-.95,1.43-2.29,2.41-3.65,3.37-.62.44-1.32.69-2.06.78-1.19.14-2.39.17-3.59.07-.77-.06-1.54-.17-2.32-.25-.55-.06-1.08.06-1.58.27-1.57.64-3.24.81-4.89,1.1-.53.09-1.06.21-1.61.17-.22-.01-.45,0-.63-.16.06-.13.18-.14.29-.19.68-.33,1.21-.81,1.4-1.62.18-.78-.21-1.78-.9-2.21-.6-.38-1.41-.26-1.97.28-.59.57-.67,1.96.46,2.35.56.19,1.2-.25,1.19-.83,0-.26-.1-.45-.37-.42-.26.03-.3.23-.23.46.1.31-.08.36-.31.36-.2,0-.33-.11-.41-.28-.18-.36-.17-.72.09-1.04.24-.3.67-.43,1-.3.83.32,1.08,1.47.47,2.15-.55.61-1.22.68-1.98.35.32.38.64.68,1.02.9-1.78.11-2.92-1.05-2.83-2.87,0-.11-.05-.26.12-.3.22.28.45.56.71.88,0-.21,0-.36,0-.51,0-.71.35-1.25.87-1.63.74-.55,1.96-.46,2.67.13.75.62,1.16,1.66.77,2.65-.11.27-.21.54-.31.81-.03.08-.06.17,0,.24.09.1.18,0,.24-.05.24-.17.36-.45.48-.7.81-1.75-.34-4.23-2.44-4.24-1.3,0-2.6.53-3.09,2.23-.32-.33-.62-.67-.96-.97-.45-.42-1.01-.64-1.57-.85-1.09-.41-1.43-1.12-1.18-2.56.06-.37.23-.7.42-1.01.09-.02.14-.07.15-.17,0,0,0,0,0,0,.06-.04.09-.1.08-.17,0,0,0,0,0,0,.05,0,.07-.04.08-.09,0,0,0,0,0,0,1.03.92,2.31,1.24,3.58,1.58.13.03.25.06.38.09.62,1.54,1.84,1.99,3.11,1.43.06.06.11.03.15-.03h0s.06-.05.08-.08h0c1.03.16,1.96.61,2.86,1.14.57.34,1.17.53,1.84.54,1.23.01,2.44-.12,3.66-.23.67-.06,1.36.04,2.04.13.16.15.32.32.5.46.94.78,3.04.37,3.42-1.3Zm-17,4.4s-.02.08.04.05c-.02-.01-.03-.03-.05-.04-.22-.33-.44-.65-.66-.98l-.08.07c.21.34.31.77.75.91Z"/><path class="cls-2" d="m49.23,43.9c-.92.02-1.83.02-2.73-.23-1.65-.46-3.3-.24-4.94.17-.95.23-1.92.2-2.89.08.78-.12,1.47-.42,1.92-1.14.44-.73.41-1.49,0-2.23-.43-.78-1.1-1.13-1.95-1.2-1-.08-2.3,1.12-2.31,1.93,0,.9.17,1.7.96,2.21-.86-.21-1.72-.27-2.61-.09-1.12.23-2,.88-2.83,1.63-.3.27-.58.55-.85.86-.35.41-.84.58-1.34.72-1.11.32-2.24.61-3.3,1.1-.07.03-.16.12-.25.02.37-1.22.82-2.39,1.78-3.25.4-.35.88-.54,1.35-.74,1.17-.51,2.08-1.32,2.7-2.48.61-1.13,1.39-2.11,2.36-2.91.22-.08.41-.22.6-.35.25-.1.5-.21.75-.31.22-.07.45-.13.67-.2.13-.04.26-.08.4-.12.56,0,1.12,0,1.67-.01.17.04.34.08.51.11.16.05.32.1.48.15.93.33,1.84.71,2.81.9,1.61.31,3.13-.02,4.58-.78,1.47-.77,3.02-1.24,4.69-1.23,2.05.02,3.57,1.03,4.77,2.7.09.12.11.37.35.29.02,0,.06.03.06.04-.2.48.26.65.42.95-.11.09-.12-.16-.23-.04-.08.08,0,.14.02.21.19.67.23,1.39.57,2.01-.75.21-1.49.44-2.24.62-.73.18-1.47.3-2.2.45.06-.08.11-.16.17-.23.84-1,.4-2.9-.31-3.46-1.16-.91-3.37-.74-4.06,1.1-.38,1.01-.15,1.92.43,2.76Zm-5.55-2.66c.94-.08,1.86-.31,2.81-.39.46-.04.81-.58.77-1-.06-.53-.43-.87-.96-.91-.63-.05-1.24.1-1.84.22-.56.11-1.16.19-1.61.61-.27.25-.46.56-.33.95.13.41.47.53.85.53.11,0,.21,0,.32,0Zm11.59-2.03c-.01-.18-.06-.41-.19-.57-.98-1.24-2.39-1.97-4-1.48-.3.09-.59.23-.82.47-.26.27-.25.54.02.81.14.14.3.15.47.16.56.02,1.13-.08,1.69.03.71.14,1.2.65,1.7,1.14.24.24.52.27.8.13.25-.12.33-.37.34-.7Zm-21.77,2.23c.09.85.24,1.02.74.97.32-.03.46-.29.6-.54.34-.62.71-1.21,1.31-1.62.25-.17.41-.44.15-.77-.02-.03-.18-.14-.04-.2.32-.14.08-.25-.02-.32-.3-.24-.73-.27-1.03,0-.36.31-.77.57-1.03.98-.33.51-.61,1.03-.68,1.51Zm-3.33,3.64c0-.4-.17-.62-.56-.65-.6-.05-1.15.12-1.61.54-.34.31-.43.77-.22,1.07.2.28.56.32.96.04.27-.18.56-.22.85-.29.37-.08.57-.32.57-.72Z"/><path class="cls-2" d="m16.34,95.05c-1.12-2.01-1.43-4.61-.08-6.67.27-.41.61-.73,1-.98.85-.56,1.74-1.04,2.68-1.4,1.29-.5,2.6-.72,3.98-.38,1.05.26,2.11.29,3.19.17.74.9,1.72,1.45,2.7,1.99.74.41,1.2,1.11,1.66,1.8l-.1.06c-1.36-.18-2.72,1.32-2.68,2.74.03,1.09.8,2.12,1.9,2.49-.19.08-.39.17-.58.25-1.28.5-2.61.24-3.91.19-1.07-.04-2.13-.05-3.19.07-1.49.17-2.98.34-4.48.3-.52-.02-1.01-.13-1.48-.38-.19-.1-.36-.29-.61-.25Zm1.27-3.44c.04,1.64,1.15,2.87,2.53,2.82,1.18-.05,2.21-1.12,2.05-2.61-.17-1.59-.86-2.58-2.55-2.45-.89.07-2.21.98-2.03,2.24Zm3.36-4.79c-.67-.03-1.29.14-1.89.32-.67.2-1.31.51-1.72,1.16-.2.32-.17.8.05,1.04.21.23.64.29.95.08.76-.51,1.61-.72,2.47-.91.33-.07.68-.11.98-.31.45-.3.45-.81.02-1.15-.28-.22-.58-.23-.87-.22Z"/><path class="cls-4" d="m16.34,95.05c.25-.05.42.15.61.25.47.24.96.36,1.48.38,1.5.05,2.99-.13,4.48-.3,1.06-.12,2.12-.11,3.19-.07,1.3.05,2.63.31,3.91-.19.2-.08.39-.16.58-.25.78.11,1.42-.17,1.9-.82.61-.83,1.1-2.11.48-3.1-.39-.63-.88-1.12-1.6-1.3l.1-.06c-.47-.69-.92-1.39-1.66-1.8-.98-.54-1.95-1.1-2.7-1.99.74-.27,1.51-.46,2.15-.97.11-.09.2,0,.28.06.33.28.76.37,1.08.67.02.02.05.02.08.02,1.15.2,1.67,1.19,2.3,2.04.63.84,1.16,1.77,1.98,2.46.7.58,1.47.87,2.36.9,1.16.04,2.26-.31,3.39-.47.48-.07.96-.18,1.43-.27.25-.05.34.13.4.31.65,1.86.29,3.66-1.62,4.74-1.28.73-2.63.64-3.99.28-.91-.24-1.81-.46-2.76-.39-1.08.08-2.08.45-3.04.94-2.07,1.08-4.26,1.76-6.55,2.04-1.82.22-3.64.13-5.38-.5-1.27-.46-2.3-1.26-2.88-2.59Z"/><path class="cls-4" d="m35.27,71.04c.49.13.91.41,1.4.71-.94.36-1.78.79-2.53,1.38-1.02.81-1.89,1.75-2.45,2.98-.19.42-.58.63-.9.92-.98.87-1.74,1.92-2.23,3.17-.36.91-.44,1.87-.19,2.83.07.28-.02.35-.26.43-1.35.47-2.71.44-4.09.15-1.2-.25-2.41-.23-3.6.13-.12.04-.23.1-.37,0-1-.76-1.93-1.58-2.51-2.76-.36-.73-.55-1.49-.34-2.31.37.41.89.48,1.37.58.65.13,1.3.12,1.96.03.59-.08,1.17.09,1.76.15h0s.06.06.09.09c1.29.88,2.93.43,3.59-.95.1-.2.17-.42.26-.63.17-.12.17-.11.29-.35.6-1.13,1.26-2.21,2.26-3,1.98-1.55,4.05-2.91,6.49-3.53Z"/><path class="cls-4" d="m63.18,91.03c-.64,1.95-2.64,3.52-4.57,3.58-1,.03-2-.01-3-.1-1.32-.11-2.49.36-3.61,1-1.34.77-2.72,1.45-4.25,1.7-1.7.27-3.36.15-4.93-.67-.29-.15-.3-.22-.05-.45,1.03-.92,1.62-2.11,1.71-3.52.05-.86-.15-1.7-.6-2.44-.16-.26-.12-.31.15-.44.86-.42,1.73-.33,2.62-.19,1.19.19,2.4.13,3.6.14,2.07.02,3.81-.74,5.36-2.11.84-.74,1.73-1.41,2.41-2.32.24-.31.47-.63.64-.99.15-.33.32-.48.65-.27.08.05.19.02.25.11,0,.71-.31,1.3-.74,1.82-1.33,1.61-2.81,3.01-4.72,3.86-.48.21-.88.61-1.04,1.19-.23.84-.21,1.66.1,2.47.09.23.24.37.48.37.66,0,1.32.04,1.98-.03,1.27-.13,2.52-.38,3.75-.73,1.03-.29,2.05-.62,2.88-1.38.28-.25.56-.5.93-.61Zm-11.7,2.21c.04-1.18-.92-2.56-2.48-2.29-.83.14-1.57.51-1.93,1.33-.4.89-.35,1.79.28,2.6.62.79,1.41.83,2.26.61,1.12-.29,1.88-1.21,1.88-2.25Z"/><path class="cls-4" d="m24.24,53.21c.31-.03.69-.06.85.17.12.18-.22.45-.36.67-.79,1.26-1.36,2.61-1.6,4.1-.26,1.56.15,2.86,1.22,3.96.21.21.4.44.62.64.6.58.97,1.29,1.19,2.11.24.88.53,1.73,1.13,2.44.84,1,1.88,1.61,3.22,1.87-.39.2-.72.27-1.05.36-1.43.39-2.85.21-4.26-.09-.99-.21-2-.36-3.02-.31-.12,0-.25.03-.35,0-1.55-.58-3.2-.96-4.32-2.4-.43-.55-.8-1.13-.98-1.82.84.42,1.73.66,2.66.74.1.06.21.1.31.17.75.54,1.72.34,2.52-.59.52-.62.43-1.33.29-2.05.08-.07.11-.13-.01-.17h0c0-.06-.01-.1-.08-.09-.07-.13-.13-.27-.2-.4.18-.02.13.23.29.28-.02-.69-.18-1.33-.3-1.98-.3-1.69-.32-3.34.38-4.94.45-1.02.95-2,1.88-2.65Z"/><path class="cls-4" d="m64.15,71.9c-.24.16-.48.32-.74.49-.26-1.12-.64-2.16-1.26-3.08-1.09-1.61-2.59-2.27-4.44-2.14-.98.07-1.97.31-2.94-.03-.81-.28-1.6-.59-2.46-.91.53-.37,1.02-.69,1.49-1.05.79-.58,1.52-1.25,2.11-2.03.44-.59.76-1.29,1-2.01.32-.95.62-1.91.65-2.93.08-2.29-.8-4.12-2.47-5.55-.14-.12-.29-.23-.44-.36.94-.58,2.4-.43,3.22.31.27.25.6.43.84.73.12.14.26.27.29.47.02.27.05.55.06.82.09,1.48-.15,2.91-.53,4.33-.04.16-.12.25-.24.35-1.11.93-1.29,2.83-.4,3.98.6.77,1.4.97,2.29.94,0,0,0,0,0,0,.02.04.05.05.08.02.37.06.74.11,1.1.17.61.19,1.04.61,1.39,1.15.49.76.77,1.62,1,2.5.22.87.31,1.74.24,2.65-.03.4-.13.83.15,1.19Z"/><path class="cls-2" d="m35.27,71.04c-2.44.62-4.52,1.98-6.49,3.53-1,.79-1.67,1.87-2.26,3-.12.24-.13.24-.29.35.08-.44.1-.87.02-1.31-.27-1.34-1.3-2.16-2.57-1.99-.68.09-1.18.57-1.67,1.02-.16.15-.32.29-.38.55-.31,1.21-.09,2.28.67,3.23-.58-.06-1.16-.23-1.76-.15-.66.09-1.31.11-1.96-.03-.49-.1-1-.16-1.37-.58.05-.32.17-.61.33-.88.63-1.06.99-2.21,1.09-3.46.06-.77.08-1.56.73-2.1.77-.64,1.62-1.07,2.62-1.12,1.2-.07,2.36.19,3.52.44,1.98.43,3.9.24,5.78-.48.33-.13.67-.24,1.01-.35,1.04-.34,2.02-.1,2.99.33Zm-12.44,3.05c.17,0,.34.02.51,0,.59-.08.95-.75.65-1.24-.15-.24-.35-.45-.62-.55-1.21-.48-3.23.08-3.62,1.85-.09.41.08.72.36.93.26.2.58.14.85-.06.12-.09.23-.18.33-.29.42-.48.93-.69,1.55-.63Z"/><path class="cls-2" d="m42.72,69.96c1.17-1.17,2.48-2.07,4.09-2.4,1.75-.37,3.48-.19,5.16.42.65.23,1.29.46,1.93.72,1.19.47,2.4.4,3.63.25,1.96-.24,3.02.55,3.88,2.56.29.68.42,1.42.52,2.15.12.85.55,1.44,1.29,1.8.21.1.43.21.65.3.84.36,1.56.82,1.92,1.78.45,1.21.59,2.43.42,3.71,0-.46-.02-.92,0-1.38,0-.18-.06-.22-.2-.19-.48.11-.96.22-1.44.33.17-.79.05-1.52-.4-2.19-.56-.83-1.49-1.05-2.36-.6-.63.33-.97.89-1.22,1.54-.2-.53-.43-1.06-.61-1.61-.55-1.7-1.5-3.16-2.54-4.55-.8-1.07-1.91-1.77-3.07-2.35-1.62-.82-3.34-1.31-5.15-1.18-2.18.15-4.33.54-6.48.89Zm17.93,2.9c.05-1.02-1.11-2.54-1.95-2.91-.23-.1-.47-.19-.73-.09-.61.23-.75.84-.32,1.43.25.35.59.62.81,1,.22.37.4.78.68,1.11.3.35.71.53,1.04.39.4-.17.44-.54.46-.92Z"/><path class="cls-4" d="m42.72,69.96c2.15-.35,4.31-.74,6.48-.89,1.81-.12,3.52.36,5.15,1.18,1.16.59,2.27,1.29,3.07,2.35,1.04,1.39,1.99,2.85,2.54,4.55.18.54.41,1.07.61,1.6-.09.48-.11.94.11,1.4.7,1.44,2.67,1.72,3.53.48.14-.2.23-.43.35-.64.48-.11.96-.23,1.44-.33.14-.03.21,0,.2.19-.01.46,0,.92,0,1.38,0,0,0,0,0,0-.09.07-.1.16-.02.25-.04,1.43-1.56,2.97-2.85,2.89-.07-.12-.19-.13-.31-.14,0,0,0,0,0,0-.31-.43-.55-.98-1.22-.84-.19-.01-.37-.04-.51-.18-.48-.48-1.09-.65-1.7-.79-.19-.04-.23-.11-.21-.29.23-2.13-.55-3.88-1.85-5.43-.47-.57-.87-1.17-1.03-1.93-.44-2.06-1.77-3.22-3.59-3.88-1.78-.64-3.59-.64-5.42-.3-1.93.35-3.87.68-5.91.61.35-.48.7-.88,1.12-1.23Zm19.93,12.94c0,.25.39.81.59.88.05.02.11.04.14-.02.02-.04.01-.11-.01-.15-.11-.15-.24-.29-.35-.44-.09-.12-.1-.27.02-.37.12-.11.23-.01.31.08.11.12.19.26.34.34.06.04.14.12.2.02.04-.06,0-.13-.04-.19-.11-.12-.22-.23-.33-.35-.08-.09-.21-.17-.09-.31.11-.12.24-.11.35,0,.13.12.25.25.37.37.05.05.12.08.18.03.07-.06.02-.13-.02-.17-.16-.2-.31-.4-.54-.53-.16-.09-.37-.14-.47.02-.16.24-.37.41-.56.62-.05.05-.06.15-.07.18Zm2.08-.75s.1,0,.14-.03c.14-.11.42-.21.34-.38-.11-.22-.24.05-.36.12-.2.11-.45-.04-.51-.29-.02-.09-.01-.17.07-.21.12-.06.13.04.14.13.02.11.1.22.18.12.11-.14.09-.35.01-.51-.07-.15-.22-.2-.37-.1-.22.14-.34.33-.26.62.09.34.28.51.63.52Z"/><path class="cls-2" d="m63.18,91.03c-.37.1-.65.36-.93.61-.83.75-1.85,1.09-2.88,1.38-1.23.35-2.49.6-3.75.73-.65.07-1.32.03-1.98.03-.23,0-.39-.14-.48-.37-.32-.81-.33-1.64-.1-2.47.16-.58.56-.97,1.04-1.19,1.91-.85,3.39-2.25,4.72-3.86.43-.52.73-1.11.74-1.82.68.21,1.25.63,1.81,1.06.72.54,1.52.98,2.02,1.82.82,1.36.62,2.77-.21,4.1Zm-5.05-2.24c-.09.02-.06.12-.11.17-.08.12-.06.25-.05.38-.07.54-.07,1.1.24,1.54.64.88,2.06,1.01,2.88.3.66-.57.89-1.33.72-2.19-.15-.75-.61-1.25-1.33-1.42-.77-.18-1.39.17-1.98.64-.07.07-.14.13-.2.2-.09.1-.19.21-.18.36h0Zm2.57-3.06c-.22-.04-.39.08-.56.18-.22.13-.19.72.05.8.49.16.94.41,1.4.65.25.13.5.14.7-.15.2-.29.09-.56-.09-.75-.4-.44-.92-.67-1.5-.73Z"/><path class="cls-2" d="m60.19,64.23c-.89.04-1.69-.16-2.29-.94-.89-1.15-.71-3.05.4-3.98.12-.1.2-.19.24-.35.38-1.42.61-2.85.53-4.33-.02-.27-.04-.55-.06-.82.42.48.59,1.09.79,1.68.1.29.2.59.3.89.29.83.85,1.41,1.59,1.81.48.26.95.52,1.44.77,1.31.66,1.88,1.82,2.05,3.25.2,1.61.05,3.19-.37,4.75-.17.64-.01,1.16.35,1.69.56.84.69,1.79.42,2.79-.04.14-.12.11-.21.12-.42.05-.83.16-1.21.34-.28-.36-.18-.8-.15-1.19.06-.9-.02-1.78-.24-2.65-.23-.88-.5-1.74-1-2.5-.35-.53-.78-.96-1.39-1.15.39-.16.79-.3.96-.76h0c.08.03.09-.05.12-.09.27-.45.36-.93.2-1.45-.09-.45-.25-.86-.64-1.13h0s-.06-.06-.08-.08h0s-.06-.07-.09-.11c-1.2-.71-2.32-.23-2.9,1.24-.38-.3-.54-.73-.63-1.31-.22.85-.13,1.53.3,2.15.1.14.22.34.45.2.02.21.19.27.32.38.07.43.38.59.73.7.02.03.05.05.07.08Zm4.74-1.29c-.07-.94-.33-1.8-1.04-2.44-.26-.24-.68-.25-.94-.04-.28.22-.23.5-.14.81.1.36.28.68.44,1.01.25.51.26,1.09.43,1.62.08.24.24.37.46.39.21.02.36-.08.5-.26.24-.33.3-.69.31-1.09Z"/><path class="cls-2" d="m24.24,53.21c-.93.65-1.43,1.63-1.88,2.65-.7,1.6-.68,3.25-.38,4.94.11.65.28,1.29.3,1.98-.16-.06-.1-.31-.29-.28-.13-.15-.25-.32-.4-.46-.4-.39-.88-.61-1.43-.53-1.43.21-2.29,2.33-1.45,3.56.14.2.31.37.46.56-.93-.08-1.82-.32-2.66-.74-.52-1.61-.3-3.09.7-4.44.52-.7,1.13-1.27,1.9-1.65.94-.47,1.35-1.34,1.66-2.3.21-.69.35-1.42.81-1.99.69-.85,1.59-1.28,2.66-1.3Z"/><path class="cls-4" d="m35.44,68.93c1.91-.55,3.73.05,5.58.44-.08.25-.32.43-.45.67-.05.08-.12.16-.13.25-.14.96-.82.99-1.52,1.01-.31.01-.52-.05-.73-.33-.64-.88-1.51-1.44-2.47-1.86-.09-.04-.21-.03-.28-.18Z"/><path class="cls-2" d="m33.72,85.64c.49-1.7,1.79-2.24,3.09-2.23,2.1.01,3.26,2.49,2.44,4.24-.12.25-.24.53-.48.7-.06.05-.15.15-.24.05-.06-.07-.03-.16,0-.24.1-.27.2-.54.31-.81.39-.99-.02-2.03-.77-2.65-.72-.6-1.93-.68-2.67-.13-.52.39-.87.92-.87,1.63,0,.15,0,.29,0,.51-.26-.33-.49-.6-.71-.88-.03-.06-.07-.13-.1-.19Z"/><path class="cls-2" d="m36.53,89c-.38-.22-.7-.52-1.02-.9.76.33,1.42.26,1.98-.35.62-.68.36-1.83-.47-2.15-.33-.13-.76,0-1,.3-.26.32-.27.68-.09,1.04.08.16.21.28.41.28.23,0,.4-.05.31-.36-.07-.23-.03-.43.23-.46.27-.03.36.16.37.42,0,.58-.63,1.03-1.19.83-1.13-.39-1.05-1.78-.46-2.35.56-.54,1.37-.65,1.97-.28.69.43,1.08,1.44.9,2.21-.19.81-.72,1.29-1.4,1.62-.11.05-.23.06-.29.19-.08-.02-.16-.04-.24-.05Z"/><path class="cls-4" d="m63.33,55.77c-.87.03-1.6-.63-1.75-1.54-.03-.18.07-.25.18-.32,1.19-.78,2.31-.27,2.58,1.17.09.46-.01.62-.46.69-.18.03-.37,0-.55,0Z"/><path class="cls-4" d="m46.26,35.32c-.7.23-1.38.38-2.07.44-.52.04-1.04-.05-1.53-.27-.32-.14-.32-.3-.11-.55.56-.7,1.46-.91,2.45-.57.5.17.92.46,1.26.96Z"/><path class="cls-4" d="m30.08,40.52c-.21.16-.54.29-.58.5-.05.24.32.38.47.6.03.05.06.09,0,.17-.21-.04-.33-.24-.45-.39-.19-.23-.38-.28-.62-.12-.54.37-1.16.46-1.78.54-.39.05-.45-.03-.31-.42.48-1.39,2.32-1.89,3.27-.89Z"/><path class="cls-4" d="m61.45,47.63c-.04-.07.12-.21-.09-.24-.21-.02-.39-.15-.56-.28-.36-.28-.56-1.1-.37-1.51.05-.11.13-.12.22-.14.86-.24,2.05.63,2.14,1.55.02.17-.05.21-.19.24-.39.09-.79.15-1.13.4v-.02Z"/><path class="cls-4" d="m47.38,99.68c-.06.2-.32.4.07.58.2.09-.04.21-.1.26-.36.27-.76.44-1.2.48-.72.07-1.42.03-1.93-.63-.05-.06-.1-.13-.14-.2-.08-.17-.26-.37-.16-.52.1-.17.33-.03.51-.02.8.04,1.6.08,2.37.34.27.09.31-.33.55-.31,0,0,.02.02.02.02Z"/><path class="cls-4" d="m67.7,66.02c.17-.36.49-.53.71-.87-.83.03-.86-.61-.93-1.17-.04-.37-.06-.74-.14-1.1-.06-.26.06-.29.24-.28.05,0,.11,0,.16.02.78.18,1.52,1.48,1.3,2.27-.02.07-.03.18-.07.18-.55.11-.73.72-1.18.96,0,0-.03,0-.1,0Z"/><path class="cls-4" d="m12.74,87.09c-.25-.11-.36-.32-.53-.46-.11-.09-.23-.16-.35-.02-.1.12-.08.26,0,.38.14.18.34.3.42.54-.35-.09-.69-.47-.69-.77,0-.26.56-.91.81-.93.22-.03.36.12.51.26.1.09.16.34.37.15.18-.17.34-.36.16-.64-.07-.1-.16-.18-.23-.28-.12-.18-.12-.36.03-.52.05-.06.11-.14.2-.09.09.05.05.13.02.21-.12.36.26.86.62.8.21-.04.28.04.29.26.02.54-.32.88-.6,1.26-.05.06-.12.11-.18.16-.14.14-.32.38-.49.27-.18-.11-.19-.42-.12-.64.13-.39-.04-.63-.29-.86-.12-.11-.27-.16-.39-.03-.11.13,0,.24.09.35.13.16.38.25.34.58Z"/><path class="cls-4" d="m56.05,35.51c.93-.53,1.84-.42,2.42.26.18.21.28.46.35.73.11.43-.09.64-.52.57-.44-.07-.83-.31-1.15-.6-.35-.32-.7-.65-1.1-.97Z"/><path class="cls-4" d="m16.51,56.65c-.05-1.26,1.27-1.65,2.04-1.35.16.06.19.18.09.31-.47.68-1.03,1.24-1.84,1.44-.43.1-.23-.27-.29-.41Z"/><path class="cls-4" d="m30.89,100.31c-.19-.02-.51.04-.57-.18-.05-.17.18-.38.35-.54.42-.41.88-.74,1.36-1.06.1-.07.23-.21.35-.12.11.09.13.27.11.42-.06.64-.95,1.48-1.59,1.48Z"/><path class="cls-4" d="m14.99,75.76c-.42-.17-.5-.37-.4-.77.16-.68.65-.89,1.21-1.03.13-.03.26-.04.43-.07-.26.76-.27,1.66-1.24,1.88h0Z"/><path class="cls-4" d="m66.98,89.9c-.29.03-.44-.24-.52-.56-.07-.3-.25-.66.02-.89.24-.2.55,0,.81.12.31.14.58.37.79.66.12.16.16.33-.1.4-.3.09-.58.25-1.01.27Z"/><path class="cls-4" d="m35.3,46.68c-.48.12-.22.31-.12.52-.57-.44-.92.16-1.36.27-.12.03-.23.13-.36.16-.25.05-.45-.09-.55-.3-.08-.18.09-.31.22-.43.63-.6,1.33-.6,2.17-.21Z"/><path class="cls-4" d="m64.34,73.12c.35-.21.72-.33,1.12-.32.49,0,.75.22.91.69.15.45.09.53-.34.46-.62-.1-1.25-.21-1.69-.82Z"/><path class="cls-1" d="m60.96,84.1c.28.16.44.06.58-.17.05-.08.16-.2.26-.1.09.1,0,.21-.09.27-.29.22-.28.42.02.63.11.08.23.16.36.04.11-.1.09-.22.02-.33-.04-.07-.1-.16,0-.21.08-.05.15.02.19.1.1.21.14.42-.03.61-.17.19-.37.23-.56.06-.28-.26-.6-.48-.74-.9Z"/><path class="cls-4" d="m57.66,39.24c-.05-.03-.08-.04-.1-.06-.07-.08,0-.24-.14-.27-.07-.01-.11.07-.12.14-.01.14,0,.28.14.36.24.14.42.04.6-.15.08-.09.2-.26.31-.12.08.11-.1.19-.16.28-.33.5-.91.32-1.09-.17-.12-.33.15-.74.49-.73.12,0,.13.08.13.16,0,.17.05.35-.05.55Z"/><path class="cls-1" d="m17.27,81.37c-.02.1.06.25-.08.28-.12.03-.12-.11-.13-.2,0-.07-.04-.15-.12-.12-.08.02-.14.1-.12.19.02.16.09.29.23.37.14.08.28.05.4-.06.07-.07.15-.22.25-.09.12.14-.06.22-.13.29-.26.23-.53.16-.75-.05-.22-.21-.32-.48-.12-.77.1-.15.26-.26.44-.22.2.05.1.25.13.39Z"/><path class="cls-2" d="m61.82,83.4c.67-.14.91.41,1.22.84-.5-.13-.79-.59-1.22-.84Z"/><path class="cls-4" d="m58.49,37.49c.11.02.26-.02.28.15.02.15-.12.17-.21.19-.22.04-.28.17-.25.38.01.08.02.18-.08.2-.11.03-.16-.06-.2-.15-.15-.34.1-.76.45-.77Z"/><path class="cls-4" d="m14.99,75.77c.43.18.66.59.93.95-.38-.24-.74-.49-.93-.95,0,0,0,0,0,0Z"/><path class="cls-2" d="m58.04,47.88c-.13-.74-.02-1.48.01-2.22,0,.58,0,1.15,0,1.73,0,.16,0,.33-.01.49Z"/><path class="cls-4" d="m58.82,37.69c.28.16.47.26.53.56-.27-.07-.4-.23-.53-.56Z"/><path class="cls-4" d="m61.46,47.64c-.08.34-.37.45-.6.64.12-.29.28-.55.59-.65,0,0,.01.02.01.02Z"/><path class="cls-2" d="m63.03,84.23c.12.01.24.03.31.14-.13.02-.23-.03-.31-.14Z"/><path class="cls-4" d="m47.52,99.5c-.02-.1.03-.15.12-.15.04,0,.09,0,.06.06-.03.08-.1.12-.19.09h0Z"/><path class="cls-2" d="m30.59,80.07c0,.1-.05.15-.15.17.03-.08.03-.18.15-.17Z"/><path class="cls-4" d="m47.53,99.5c.03.13-.03.18-.15.18,0,0-.02-.02-.02-.02,0-.12.05-.17.17-.16h0Z"/><path class="cls-5" d="m58.77,96.55c-.08.08-.17.06-.27.03.08-.06.17-.06.27-.03Z"/><path class="cls-2" d="m66.19,81.49c-.08-.09-.07-.17.02-.25,0,.08-.01.16-.02.25Z"/><path class="cls-2" d="m30.66,79.91c0,.07-.02.13-.08.17-.03-.09,0-.14.08-.17Z"/><path class="cls-2" d="m30.74,79.83s-.03.09-.08.09c0-.06.02-.1.08-.09Z"/><path class="cls-6" d="m66.53,67.71s-.03,0-.05,0c0-.02,0-.03,0-.05.01.02.02.03.04.05,0,0,0-.01,0-.01Z"/><path class="cls-5" d="m50.29,19.54c.11.1.11.21.02.32,0-.11-.01-.21-.02-.32Z"/><path class="cls-6" d="m41.07,48.8c2.33.05,3.9.74,5.06,2.32.12.17.21.35.28.54.24.63-.14,1.2-.77,1.09-1.26-.23-2.52-.14-3.76.12-.85.18-1.65.55-2.44.93-.46.22-.94.41-1.46.46-1.22.12-2.11-1.33-1.62-2.52.35-.84.94-1.42,1.71-1.83,1.09-.59,2.19-1.14,3-1.1Z"/><path class="cls-3" d="m30.2,55.82c-.09-1.38.58-2.16,1.63-2.58,1.13-.45,2.32-.05,3.03.94.42.58.75,1.21.79,1.95.07,1.37-1.13,2.69-2.51,2.87-1.91.26-2.71-.98-2.93-2.69-.02-.16,0-.33,0-.5Zm2.06.6s-.03-.08-.06-.05c-.03.04,0,.06.04.07l.08.09s.04.08.07.04c.04-.04,0-.06-.04-.07-.03-.03-.06-.05-.09-.08Zm.71.75s0-.09-.06-.04c.02.02.04.03.05.05,0,.05.03.08.08.09.05.14.13.21.35.21-.12-.14-.17-.25-.32-.23,0-.06-.03-.08-.09-.07Zm-1.19-1.24s-.02-.04-.03-.06c-.01.01-.03.02-.04.04.02.01.04.02.06.04,0,.15.09.24.23.25,0,.04.03.08.07.05.03-.04-.01-.06-.05-.07,0-.16-.08-.25-.24-.24Zm1.64.53h0c.08-.01.16-.01.24-.02.61-.03.7-.18.45-.75-.06-.14-.12-.27-.19-.41-.29-.55-.82-.83-1.41-.76-.09.01-.19.02-.23.12-.35.8-.29,1.59.72,1.79.14.03.29.02.43.02Zm-.56.52s-.04-.04-.05-.04c-.02,0-.03.02-.05.04.02.01.03.04.05.04.02,0,.04-.02.05-.03Zm-.29-.28l-.04-.07s-.03.01-.03.02c0,.02,0,.05.01.07.02,0,.04-.02.05-.03Z"/><path class="cls-3" d="m42.68,63.49c-.56.25-1.11.48-1.74.33-.18-.04-.35-.11-.52-.16-.05-.05-.06-.17-.18-.09,0,0,.02,0,.02,0-.59-.65-.79-1.41-.66-2.3.17-1.22,1.92-2.59,3.25-1.68,1.18.8,1.3,2.76.17,3.64-.12.09-.23.18-.35.27Zm-1.52-1.81c.17,0,.3-.07.43-.16.22-.15.28-.43.49-.58.07-.05.17-.12.12-.23-.05-.13-.17-.2-.28-.18-.42.08-.84.16-1.07.59-.07.13-.18.28-.09.42.08.12.24.15.39.14Z"/><path class="cls-3" d="m48.54,54.36c1.22.02,2.17,1.33,1.79,2.55-.2.67-.74.97-1.37,1.1-.88.19-1.69,0-2.28-.68-.29-.35-.39-.9-.32-1.41.14-.94.81-1.51,1.81-1.56.12,0,.24,0,.36,0Zm.87,2.04c-.16-.96-1.01-1.35-1.75-.86-.12.08-.16.18-.11.31.1.27.25.49.56.51.26.02.52.02.78-.05.16-.04.33-.12.51.09Z"/><path class="cls-6" d="m53.99,56.91c-.06.6-.23,1.19-.74,1.62-.27.23-.55.25-.83.05-.29-.21-.44-.51-.32-.89.03-.09.05-.19.09-.27.27-.53.16-1.01-.16-1.46-.08-.12-.16-.25-.23-.38-.17-.3-.2-.61.06-.87.26-.26.57-.21.84-.05.82.48,1.23,1.24,1.29,2.26Z"/><path class="cls-6" d="m27.2,56.41c.08-.85.31-1.62,1.02-2.14.3-.22.64-.22.92.01.36.3.42.64.17,1.06-.3.51-.49,1.06-.72,1.6-.18.44-.47.65-.79.58-.34-.08-.58-.43-.6-.87,0-.08,0-.17,0-.25Z"/><path class="cls-6" d="m54.4,78.09c.06.37-.11.73-.32,1.07-.41.68-1.36.86-1.86.26-.67-.8-1.47-1.39-2.34-1.9-.98-.58-.91-1.84-.59-2.43.52-.95,1.67-1.29,2.56-.79,1.08.61,1.9,1.48,2.38,2.69.13.34.17.69.17,1.1Z"/><path class="cls-3" d="m48.07,76.88c0,1.19-1.01,2.37-2.14,2.71-.79.24-1.41.05-1.94-.52-.51-.56-.74-1.27-.6-2.05.16-.86.52-1.62,1.25-2.1.72-.48,1.49-.39,2.21.02.75.42,1.22,1.2,1.22,1.94Zm-3.54.93c.12.04.17-.03.23-.09.22-.25.44-.44.82-.41.4.04.8-.1,1.17-.29.19-.1.25-.21.17-.42-.24-.7-.98-1-1.64-.78-.35.12-.72.85-.54,1.06.27.3.17.48-.08.68-.07.06-.15.12-.14.26Z"/><path class="cls-3" d="m37.8,82.93c-1.27.56-2.49.11-3.11-1.43-.54-1.71.83-3.2,2.22-3.25,1.06-.03,1.58.59,1.89,1.8.27,1.08-.05,1.99-.79,2.77,0,0,0,0,0,0-.06,0-.09.03-.08.09,0,0,0,0,0,0-.05.01-.1.02-.15.03Zm-.82-2.34c.21.03.41-.05.62-.08.16-.03.2-.12.15-.26-.12-.35-.18-.76-.62-.86-.37-.09-.93.14-1.15.46-.1.14-.07.25.05.35.28.24.57.44.95.39Z"/><path class="cls-6" d="m40.59,77.15c-.53,0-1.05-.08-1.57-.08-.75,0-1.46.17-2.14.48-.17.08-.35.12-.53.12-.63.02-.99-.47-.77-1.09.25-.72.77-1.19,1.44-1.43.73-.26,1.46-.52,2.25-.57.81-.05,1.54.1,2.2.58.39.28.6.82.48,1.22-.13.48-.49.74-1.05.77-.11,0-.21,0-.32,0Z"/><path class="cls-3" d="m52.34,83.56c-.38,1.67-2.49,2.07-3.42,1.3-.17-.14-.33-.31-.5-.46-.46-.69-.58-1.43-.26-2.22.16-.38.42-.67.78-.83.87-.39,1.74-.58,2.54.16.59.54.94,1.2.85,2.06Zm-1.69-.4c.07,0,.13,0,.2,0,.34-.02.39-.11.21-.41-.26-.45-1.01-.69-1.46-.48-.12.06-.14.12-.09.25.16.46.5.66,1.15.64Zm.61.07c-.33.2-.47.56-.79.68-.05.02-.04.06-.02.1.03.06.08.07.13.03.26-.21.61-.33.68-.81Z"/><path class="cls-3" d="m49.23,43.9c-.59-.84-.81-1.75-.43-2.76.69-1.83,2.89-2.01,4.06-1.1.71.56,1.16,2.46.31,3.46-.06.07-.11.15-.17.23-.79.68-1.67,1.06-2.72.84-.43-.09-.75-.37-1.05-.67Zm2.05-3.31c-.39,0-.76.12-1.09.31-.4.23-.51.61-.27.89.23.27.49.5.86.54.64.08,1.16-.29,1.71-.54.16-.07.08-.24.04-.37-.16-.49-.67-.82-1.25-.84Z"/><path class="cls-3" d="m37.29,43.48c-.79-.51-.97-1.31-.96-2.21,0-.81,1.31-2.01,2.31-1.93.84.07,1.52.42,1.95,1.2.4.73.44,1.5,0,2.23-.44.72-1.14,1.02-1.92,1.14-.5,0-.94-.18-1.37-.43Zm1.5-1.54c.21-.02.42-.01.63-.05.47-.09.52-.24.27-.68-.48-.86-1.51-.98-2.18-.27-.13.13-.08.24-.02.37.28.56.74.7,1.29.64Z"/><path class="cls-2" d="m32.88,65.94c.03.23-.09.41-.3.5-.24.1-.46,0-.65-.18-.17-.17-.28-.38-.2-.63.04-.11.12-.24.26-.2.16.05.05.17.03.27-.04.18-.05.37.17.44.14.04.29.07.39-.09.12-.2,0-.34-.11-.47-.19-.21-.39-.41-.58-.62-.06-.06-.11-.13-.05-.21.02-.03.09-.06.13-.05.2.04.91,1,.91,1.25Z"/><path class="cls-2" d="m33.8,63.82c-.17.19-.19.36-.05.51.12.13.29.12.44.05.08-.04.14-.13.21-.18.09-.07.18-.28.31-.11.12.15-.07.24-.15.32-.49.48-1.01.39-1.16-.2-.06-.23,0-.43.18-.59.13-.11.29-.21.42-.04.13.17.1.4.03.59-.03.09-.14.06-.17-.04-.03-.08-.03-.18-.06-.31Z"/><path class="cls-2" d="m32.98,64.67c-.03.21.13.34.27.48.1.1.29.24.19.35-.14.16-.24-.07-.34-.16-.21-.18-.45-.36-.38-.71.02-.11.03-.28.19-.25.14.02.12.16.06.3Z"/><path class="cls-2" d="m40.25,63.56c.11-.08.13.05.18.09-.07-.02-.15,0-.18-.09Z"/><path class="cls-3" d="m35.34,87.96c-.44-.15-.54-.57-.75-.91l.08-.07c.22.33.44.65.66.98h0Z"/><path class="cls-2" d="m37.8,82.93s.1-.02.15-.03c-.04.06-.08.1-.15.03Z"/><path class="cls-3" d="m35.33,87.97s.03.03.05.04c-.06.03-.05-.01-.04-.05,0,0,0,0,0,0Z"/><path class="cls-2" d="m37.94,82.9c0-.06.03-.09.08-.09-.03.03-.06.06-.08.09Z"/><path class="cls-6" d="m43.68,41.23c-.11,0-.21,0-.32,0-.38,0-.72-.12-.85-.53-.13-.39.06-.7.33-.95.46-.43,1.06-.5,1.61-.61.6-.12,1.21-.27,1.84-.22.53.04.9.38.96.91.05.42-.3.96-.77,1-.94.08-1.87.31-2.81.39Z"/><path class="cls-6" d="m55.26,39.2c0,.33-.09.58-.34.7-.28.13-.56.1-.8-.13-.5-.49-.99-1-1.7-1.14-.56-.11-1.13-.01-1.69-.03-.17,0-.33-.02-.47-.16-.27-.27-.28-.54-.02-.81.23-.24.52-.38.82-.47,1.61-.49,3.01.24,4,1.48.13.16.18.4.19.57Z"/><path class="cls-6" d="m33.5,41.43c.07-.48.35-1,.68-1.51.27-.42.67-.67,1.03-.98.3-.26.73-.23,1.03,0,.1.08.33.18.02.32-.15.06.02.18.04.2.26.33.1.59-.15.77-.59.41-.96,1-1.31,1.62-.14.25-.29.5-.6.54-.5.05-.65-.12-.74-.97Z"/><path class="cls-6" d="m30.17,45.07c0,.39-.2.63-.57.72-.29.06-.59.1-.85.29-.4.28-.76.24-.96-.04-.21-.3-.12-.76.22-1.07.46-.42,1-.59,1.61-.54.39.03.57.25.56.65Z"/><path class="cls-3" d="m17.6,91.61c-.17-1.26,1.15-2.17,2.03-2.24,1.69-.13,2.38.86,2.55,2.45.16,1.48-.87,2.56-2.05,2.61-1.38.05-2.49-1.18-2.53-2.82Zm2.69-.83c-.15,0-.23.09-.24.25-.16.05-.3.13-.42-.11-.07-.15-.23-.18-.41-.09-.26.13-.5.3-.46.63.04.46-.09,1.02.51,1.23.03.19.16.28.32.33.03.06.06.12.14.1.01,0,.03-.05.03-.06-.05-.06-.11-.05-.17-.04,0-.22-.13-.3-.31-.34.09-.28.34-.19.53-.23.5-.09.66-.44.33-.82-.2-.23-.15-.39-.05-.6.14-.02.23-.09.24-.25.03-.02.07-.03.1-.05-.01-.02-.02-.03-.04-.05-.03.02-.06.05-.08.07Z"/><path class="cls-3" d="m31.37,89.64c.72.19,1.21.67,1.6,1.3.62.99.13,2.27-.48,3.1-.48.65-1.12.93-1.9.82-1.09-.37-1.87-1.4-1.9-2.49-.04-1.42,1.32-2.91,2.68-2.74Zm.25,3.78c.07-.2.03-.26-.02-.3-.42-.27-.36-.71-.35-1.13,0-.2-.33-.84-.5-.93-.1-.05-.17-.01-.25.04-.62.39-.84,1.05-.58,1.77.1.29.26.42.56.33.4-.12.83-.43,1.16.22Z"/><path class="cls-6" d="m20.96,86.82c.29,0,.59,0,.87.22.43.34.43.85-.02,1.15-.3.2-.64.24-.98.31-.86.19-1.72.4-2.47.91-.32.21-.75.15-.95-.08-.22-.25-.25-.72-.05-1.04.41-.65,1.05-.96,1.72-1.16.6-.18,1.22-.34,1.89-.32Z"/><path class="cls-3" d="m22.28,79.42c-.76-.96-.98-2.03-.67-3.23.07-.26.22-.4.38-.55.49-.45.99-.92,1.67-1.02,1.27-.17,2.3.65,2.57,1.99.09.44.07.87-.02,1.31-.09.21-.16.43-.26.63-.67,1.38-2.31,1.83-3.59.95-.03-.03-.06-.06-.09-.09h0Zm1.09-2.04c.15,0,.25,0,.34-.02.41-.08.76-.56.63-.87-.19-.47-.54-.61-.97-.39-.2.1-.39.23-.54.4-.34.39-.26.69.22.81.13.03.26.05.33.06Z"/><path class="cls-2" d="m22.28,79.41s.06.06.09.09c-.03-.03-.06-.06-.09-.09Z"/><path class="cls-3" d="m51.48,93.24c0,1.04-.75,1.96-1.88,2.25-.85.22-1.64.18-2.26-.61-.63-.81-.68-1.71-.28-2.6.37-.82,1.11-1.18,1.93-1.33,1.56-.27,2.52,1.11,2.48,2.29Zm-2.53.22c.35,0,.66-.16.99-.22.37-.07.32-.28.21-.53-.1-.22-.22-.37-.51-.28-.36.12-.66.32-.9.62-.07.09-.2.19-.15.32.07.16.23.06.36.1Z"/><path class="cls-3" d="m19.17,65.63c-.15-.19-.33-.36-.46-.56-.84-1.23.02-3.35,1.45-3.56.56-.08,1.03.14,1.43.53.14.14.27.3.4.46.07.13.13.27.2.4.01.05,0,.11.08.09,0,0,0,0,0,0,0,.06,0,.11.01.17.15.72.24,1.43-.29,2.05-.79.94-1.77,1.13-2.52.59-.1-.07-.21-.12-.31-.17Zm.96-1.63c.3,0,.57-.36.88-.62.09-.08,0-.17-.05-.25-.14-.18-.26-.4-.53-.36-.37.06-.73.15-.89.58-.15.41,0,.64.58.65Z"/><path class="cls-2" d="m22.28,63.16c0-.06,0-.11-.01-.17.12.05.09.11.01.17Z"/><path class="cls-2" d="m22.27,62.99c-.07.01-.07-.05-.08-.09.07-.01.09.03.08.09Z"/><path class="cls-3" d="m62.01,60.99c.39.26.55.68.64,1.13-.11.38-.23.75-.4,1.11-.07.15-.18.33.08.43-.17.46-.57.6-.96.76-.37-.06-.74-.11-1.1-.17-.03,0-.05-.01-.08-.02,0,0,0,0,0,0-.02-.03-.05-.05-.07-.08,1.32-.08,2.25-1.38,1.95-2.73-.03-.14-.15-.27-.07-.43Z"/><path class="cls-2" d="m60.19,64.23s.05.01.08.02c-.04.03-.06.02-.08-.02Z"/><path class="cls-6" d="m22.82,74.09c-.62-.06-1.13.15-1.55.63-.1.11-.21.21-.33.29-.27.2-.58.27-.85.06-.28-.21-.45-.52-.36-.93.4-1.77,2.41-2.33,3.62-1.85.27.11.47.31.62.55.3.49-.05,1.16-.65,1.24-.17.02-.34,0-.51,0Z"/><path class="cls-3" d="m64.55,80.01c-.11.22-.21.44-.35.64-.85,1.24-2.82.96-3.53-.48-.22-.46-.2-.93-.11-1.4.25-.65.58-1.21,1.22-1.54.87-.45,1.8-.23,2.36.6.45.67.57,1.4.4,2.19Zm-2.01-.75c.22,0,.41-.01.6-.05.28-.06.36-.18.24-.46-.13-.3-.29-.6-.61-.62-.41-.02-.75.2-1.02.52-.2.24-.2.43.15.52.22.06.43.11.64.09Z"/><path class="cls-6" d="m60.65,72.86c-.01.38-.06.75-.46.92-.34.14-.75-.03-1.04-.39-.28-.34-.46-.74-.68-1.11-.23-.38-.56-.65-.81-1-.43-.59-.29-1.2.32-1.43.26-.1.5,0,.73.09.84.36,2,1.89,1.95,2.91Z"/><path class="cls-2" d="m62.65,82.9s.02-.13.07-.18c.19-.2.4-.37.56-.62.1-.16.31-.11.47-.02.23.13.38.33.54.53.04.05.1.11.02.17-.06.05-.13.02-.18-.03-.13-.12-.24-.25-.37-.37-.11-.1-.25-.12-.35,0-.12.14.01.22.09.31.11.12.22.24.33.35.05.05.08.13.04.19-.07.1-.14.02-.2-.02-.14-.08-.23-.22-.34-.34-.08-.09-.19-.19-.31-.08-.12.11-.11.25-.02.37.11.15.24.29.35.44.03.03.03.11.01.15-.03.06-.09.04-.14.02-.2-.07-.6-.63-.59-.88Z"/><path class="cls-2" d="m64.73,82.15c-.35-.01-.54-.18-.63-.52-.08-.3.05-.48.26-.62.15-.1.3-.06.37.1.08.16.1.37-.01.51-.07.09-.16,0-.18-.12-.01-.08-.02-.18-.14-.13-.08.04-.09.12-.07.21.06.25.31.4.51.29.12-.06.25-.34.36-.12.08.17-.2.27-.34.38-.04.03-.1.02-.14.03Z"/><path class="cls-3" d="m58.12,88.79c0-.16.09-.26.18-.36.2.04.4.16.61.02.06-.04.15-.09.11-.19-.04-.08-.11-.08-.2-.04-.1.04-.2.17-.31.02.59-.46,1.21-.82,1.98-.64.72.17,1.18.67,1.33,1.42.17.86-.06,1.62-.72,2.19-.82.71-2.24.57-2.88-.3-.32-.44-.31-1-.24-1.54.21-.04.34-.2.39-.38.04-.14-.2-.06-.25-.18Zm2.63.77c0-.44-.17-.7-.41-.69-.25.02-.57.34-.56.59,0,.28.4.76.66.71.31-.07.28-.4.32-.61Z"/><path class="cls-6" d="m60.69,85.73c.58.06,1.09.29,1.5.73.18.19.29.46.09.75-.2.28-.45.28-.7.15-.46-.24-.91-.49-1.4-.65-.23-.08-.26-.67-.05-.8.17-.1.34-.23.56-.18Z"/><path class="cls-4" d="m58.5,88.23c.11.15.22.02.31-.02.09-.04.16-.04.2.04.05.1-.05.15-.11.19-.2.14-.41.02-.61-.02.07-.07.14-.13.2-.2Z"/><path class="cls-4" d="m58.12,88.79c.05.11.29.04.25.18-.05.18-.18.34-.39.38-.01-.13-.03-.26.05-.38.12,0,.17-.05.11-.17h0Z"/><path class="cls-3" d="m58.13,88.79c.06.13.01.17-.11.17.04-.05.01-.15.11-.17Z"/><path class="cls-4" d="m62.01,60.99c-.09.16.03.29.07.43.3,1.35-.63,2.65-1.95,2.73-.35-.11-.66-.27-.73-.7.28.07.57.07.86.05.09,0,.19-.04.22-.14.03-.1-.08-.13-.13-.19-.37-.42-1.01-.33-1.31-.86-.02.03-.05.05-.07.08.03.23.07.45.1.68-.23.14-.35-.06-.45-.2-.43-.62-.53-1.3-.3-2.15.09.58.25,1.01.63,1.31.58-1.47,1.7-1.95,2.9-1.24,0,.06,0,.12.09.12h0c0,.06.02.09.08.08h0Zm-1.61-.27c-.4,0-.69.21-.85.57-.16.35-.1.7.13,1.01.13.17.29.15.46.09.15-.05.17-.15.15-.33-.07-.46.08-.62.52-.54.14.02.31-.1.43.1.03.05.16.05.21-.01.05-.06-.01-.13-.04-.19-.2-.45-.56-.63-1-.7Z"/><path class="cls-6" d="m64.94,62.94c0,.4-.06.76-.31,1.09-.14.18-.29.28-.5.26-.22-.02-.38-.15-.46-.39-.17-.53-.18-1.11-.43-1.62-.16-.33-.33-.65-.44-1.01-.09-.31-.14-.59.14-.81.27-.21.68-.2.94.04.71.64.97,1.5,1.04,2.44Z"/><path class="cls-3" d="m59.07,63.06c-.03-.23-.07-.45-.1-.68.02-.03.05-.05.07-.08.31.53.94.45,1.31.86.05.06.16.09.13.19-.03.1-.13.14-.22.14-.29.02-.58.01-.86-.05-.13-.11-.31-.17-.32-.38Z"/><path class="cls-4" d="m62.34,63.66c-.26-.09-.15-.27-.08-.43.17-.36.29-.73.4-1.11.15.52.06,1-.2,1.45-.06,0-.12,0-.12.09h0Z"/><path class="cls-3" d="m62.33,63.66c0-.09.06-.1.12-.09-.03.04-.04.12-.12.09Z"/><path class="cls-3" d="m61.93,60.91c-.08,0-.09-.05-.09-.12.03.04.06.08.09.12Z"/><path class="cls-3" d="m62.01,61c-.07.01-.09-.02-.08-.09.03.03.06.06.08.09Z"/><path class="cls-4" d="m33.42,56.45c-.14,0-.29,0-.43-.02-1.01-.19-1.06-.99-.72-1.79.05-.11.14-.11.23-.12.59-.08,1.12.21,1.41.76.07.13.13.27.19.41.25.57.16.73-.45.75-.08,0-.16,0-.24,0h0Z"/><path class="cls-4" d="m32,56.19c-.15-.01-.23-.1-.23-.25h0c.16-.01.23.07.24.23l-.02.02Z"/><path class="cls-4" d="m33.06,57.24c.15-.02.21.09.32.23-.22,0-.3-.07-.35-.21,0,0,.02-.02.02-.02Z"/><path class="cls-4" d="m32.86,56.97s-.04.04-.05.03c-.02,0-.03-.03-.05-.04.02-.01.04-.04.05-.04.02,0,.03.03.05.04Z"/><path class="cls-4" d="m32.57,56.7s-.04.02-.05.03c0-.02-.01-.05-.01-.07,0,0,.02-.01.03-.02.01.02.02.04.04.07Z"/><path class="cls-4" d="m32.97,57.17c.06,0,.08.02.09.07,0,0-.02.02-.02.02-.05,0-.08-.03-.08-.09h.01Z"/><path class="cls-4" d="m32.96,57.18s-.04-.03-.05-.05c.06-.05.06,0,.06.04,0,0-.01.01-.01.01Z"/><path class="cls-4" d="m32.35,56.5s.08.04.04.07c-.03.04-.06,0-.07-.04,0-.01.02-.02.03-.03Z"/><path class="cls-4" d="m32.32,56.53l-.08-.09.02-.02s.06.05.09.08c-.01,0-.02.02-.03.03Z"/><path class="cls-4" d="m32.24,56.44s-.08-.03-.04-.07c.03-.03.05,0,.06.05,0,0-.02.02-.02.02Z"/><path class="cls-4" d="m32.02,56.17s.08.03.05.07c-.03.04-.06,0-.07-.05,0,0,.02-.02.02-.02Z"/><path class="cls-4" d="m31.77,55.94s-.04-.02-.06-.04c.01-.01.03-.02.04-.04,0,.02.02.04.03.06,0,0,0,0,0,0Z"/><path class="cls-4" d="m41.16,61.68c-.15.01-.31-.02-.39-.14-.09-.14.02-.29.09-.42.23-.43.65-.52,1.07-.59.11-.02.24.05.28.18.04.12-.06.18-.12.23-.21.15-.28.43-.49.58-.14.1-.27.17-.43.16Z"/><path class="cls-4" d="m49.41,56.4c-.18-.21-.35-.13-.51-.09-.26.07-.52.06-.78.05-.31-.02-.46-.23-.56-.51-.05-.13-.01-.23.11-.31.73-.49,1.59-.1,1.75.86Z"/><path class="cls-4" d="m44.53,77.81c0-.14.07-.2.14-.26.24-.2.34-.38.08-.68-.18-.2.18-.94.54-1.06.66-.22,1.4.08,1.64.78.07.21.02.32-.17.42-.37.19-.77.33-1.17.29-.39-.03-.6.16-.82.41-.05.06-.11.13-.23.09Z"/><path class="cls-4" d="m36.99,80.58c-.39.06-.68-.14-.95-.39-.12-.1-.15-.21-.05-.35.22-.32.79-.55,1.15-.46.44.11.5.51.62.86.05.14,0,.23-.15.26-.21.03-.41.11-.62.08Z"/><path class="cls-4" d="m50.65,83.16c-.64.01-.98-.19-1.15-.64-.05-.13-.03-.19.09-.25.46-.21,1.2.03,1.46.48.18.3.13.4-.21.41-.07,0-.13,0-.2,0Z"/><path class="cls-4" d="m51.26,83.23c-.07.48-.42.6-.68.81-.05.04-.1.03-.13-.03-.02-.04-.03-.08.02-.1.32-.12.45-.48.79-.68Z"/><path class="cls-4" d="m51.28,40.58c.58.02,1.09.36,1.25.84.04.13.12.29-.04.37-.55.25-1.07.61-1.71.54-.36-.04-.63-.27-.86-.54-.24-.28-.14-.66.27-.89.33-.19.7-.32,1.09-.31Z"/><path class="cls-4" d="m38.79,41.94c-.56.07-1.02-.08-1.29-.64-.06-.12-.11-.23.02-.37.67-.71,1.7-.59,2.18.27.25.44.19.59-.27.68-.21.04-.42.04-.63.05Z"/><path class="cls-4" d="m19.27,92.7c-.6-.21-.47-.77-.51-1.23-.03-.33.2-.5.46-.63.18-.09.34-.06.41.09.12.24.26.16.42.11l.03.03c-.1.21-.15.37.05.6.34.38.17.73-.33.82-.19.03-.43-.06-.53.23h0Z"/><path class="cls-4" d="m19.58,93.03c-.16-.05-.28-.14-.32-.33,0,0,0,0,0,0,.18.03.32.11.31.34h0Z"/><path class="cls-4" d="m20.05,91.02c.01-.16.09-.24.24-.25l.02.03c0,.16-.09.23-.24.25,0,0-.03-.03-.03-.03Z"/><path class="cls-4" d="m19.58,93.03c.06-.01.12-.02.17.04,0,0-.01.06-.03.06-.08.02-.11-.04-.14-.1,0,0,0,0,0,0Z"/><path class="cls-4" d="m20.29,90.78s.06-.05.08-.07c.01.02.02.03.04.05-.03.02-.07.03-.1.05,0,0-.02-.03-.02-.03Z"/><path class="cls-4" d="m31.62,93.43c-.33-.66-.76-.34-1.16-.22-.3.09-.46-.03-.56-.33-.25-.73-.04-1.38.58-1.77.08-.05.16-.09.25-.04.17.09.51.73.5.93,0,.42-.06.85.35,1.13.05.04.09.1.02.3Z"/><path class="cls-4" d="m23.37,77.37c-.07-.01-.2-.03-.33-.06-.48-.12-.56-.42-.22-.81.15-.18.34-.3.54-.4.44-.22.79-.07.97.39.12.31-.23.79-.63.87-.09.02-.18.01-.34.02Z"/><path class="cls-4" d="m48.94,93.46c-.12-.03-.29.07-.36-.1-.05-.13.08-.23.15-.32.24-.3.53-.5.9-.62.29-.09.41.05.51.28.11.25.16.46-.21.53-.33.07-.65.22-.99.22Z"/><path class="cls-4" d="m20.13,64.01c-.58,0-.73-.24-.58-.65.15-.43.52-.51.89-.58.27-.05.39.17.53.36.06.08.14.17.05.25-.31.26-.58.61-.88.62Z"/><path class="cls-4" d="m62.54,79.25c-.21.02-.42-.03-.64-.09-.35-.09-.35-.28-.15-.52.27-.32.61-.54,1.02-.52.33.02.49.32.61.62.12.28.04.4-.24.46-.19.04-.39.06-.6.05Z"/><path class="cls-4" d="m60.75,89.55c-.04.21,0,.54-.32.61-.25.05-.65-.43-.66-.71,0-.25.31-.57.56-.59.24-.01.41.25.41.69Z"/><path class="cls-3" d="m60.4,60.72c.43.07.8.24,1,.7.03.06.09.13.04.19-.05.06-.18.06-.21.01-.12-.19-.29-.07-.43-.1-.44-.08-.59.08-.52.54.03.17,0,.27-.15.33-.16.06-.33.07-.46-.09-.24-.31-.29-.66-.13-1.01.16-.36.45-.56.85-.57Z"/></svg>