<?xml version="1.0" encoding="UTF-8"?><svg id="Laag_1" xmlns="http://www.w3.org/2000/svg" viewBox="0 0 400 400"><defs><style>.cls-1{stroke:#000;stroke-miterlimit:10;}.cls-2{fill:#ea1313;}.cls-3{fill:#4d7099;}</style></defs><path class="cls-3" d="M197.97,204.57c1.17-8.71,2.85-17.45,3.99-26.18h-40.69c-7.62,0-13.86,5.4-13.86,12v19.23c0,6.6,6.24,12,13.86,12h36.25c-.43-5.67-.31-11.37,.45-17.05Z"/><path class="cls-2" d="M239.9,178.38h-38.05c-.98,8.11-2.39,16.22-3.41,24.32-.8,6.34-1.03,12.64-.6,18.92h42.07c6.98,0,12.7-5.4,12.7-12v-19.23c0-6.6-5.71-12-12.7-12Z"/><rect x="169.66" y="180" width="61.91" height="39.7"/><circle class="cls-1" cx="242.04" cy="190.91" r="1.95"/><circle class="cls-1" cx="242.04" cy="200.2" r="1.95"/><circle class="cls-1" cx="237.14" cy="195.45" r="1.95"/><circle class="cls-1" cx="247.04" cy="195.45" r="1.95"/><circle class="cls-1" cx="157.93" cy="190.8" r="1.95"/><circle class="cls-1" cx="157.93" cy="200.09" r="1.95"/><circle class="cls-1" cx="153.03" cy="195.34" r="1.95"/><circle class="cls-1" cx="162.93" cy="195.34" r="1.95"/></svg>