<?xml version="1.0" encoding="UTF-8"?><svg id="Laag_1" xmlns="http://www.w3.org/2000/svg" viewBox="0 0 114.13 55.25"><defs><style>.cls-1{stroke:#000;stroke-miterlimit:10;}.cls-2{fill:#ea1313;}.cls-3{fill:#4d7099;}</style></defs><path class="cls-3" d="m55.71,31.56c1.17-8.71,2.85-17.45,3.99-26.18H19.01c-7.62,0-13.86,5.4-13.86,12v19.23c0,6.6,6.24,12,13.86,12h36.25c-.43-5.67-.31-11.37.45-17.05Z"/><path class="cls-2" d="m97.64,5.37h-38.05c-.98,8.11-2.39,16.22-3.41,24.32-.8,6.34-1.03,12.64-.6,18.92h42.07c6.98,0,12.7-5.4,12.7-12v-19.23c0-6.6-5.71-12-12.7-12Z"/><rect x="27.4" y="6.99" width="61.91" height="39.7"/><circle class="cls-1" cx="99.79" cy="17.9" r="1.95"/><circle class="cls-1" cx="99.79" cy="27.19" r="1.95"/><circle class="cls-1" cx="94.89" cy="22.44" r="1.95"/><circle class="cls-1" cx="104.78" cy="22.44" r="1.95"/><circle class="cls-1" cx="15.68" cy="17.79" r="1.95"/><circle class="cls-1" cx="15.68" cy="27.08" r="1.95"/><circle class="cls-1" cx="10.78" cy="22.32" r="1.95"/><circle class="cls-1" cx="20.67" cy="22.32" r="1.95"/></svg>