<?xml version="1.0" encoding="UTF-8"?><svg id="Laag_1" xmlns="http://www.w3.org/2000/svg" viewBox="0 0 1366 768"><defs><style>.cls-1{fill:#fff;}.cls-2{fill:red;}</style></defs><g><path class="cls-2" d="m462.33,257.89h-15.34c0-5.77,0-11.35,0-16.93.13-.98.27-1.96.4-2.93h63.72c0,28.35.09,56.41-.28,84.67-35.38.2-70.77.25-106.15.21-1.07-.73-2.14-1.45-3.21-2.18.1-2,.19-4,.29-6.01.24-1.42.48-2.83.72-4.25,0-2.62.02-5.23.03-7.85-.32-.31-.65-.62-.97-.92-.31-.08-.6-.18-.89-.32-6.32-.31-12.65-.62-18.97-.94-.15-2-.3-3.99-.45-5.99,0-5.31,0-10.62,0-16.31h-19.97v-63.32c6.73-.07,13.45-.09,20.18-.14,0,0,.02-.02.02-.02.05-1.4.1-2.79.15-4.19,0-4.97,0-9.94.01-14.92.24-.4.47-.81.71-1.21h.01c.41-.25.81-.48,1.22-.72,6.34,0,12.67-.17,19.01-.3l.05.04c.08-2.38.16-4.77.24-7.15-.13-2.97-.25-5.93-.38-8.9-.2-.76-.41-1.52-.61-2.28.02-.32-.08-.6-.3-.84,2.38-.39,4.76-.78,7.14-1.17,4.39.11,8.78.23,13.18.34,11.15.03,22.3.04,33.45,0l-.1-.33h55.39v20.56h-85.5c-.45,6.61-.9,13.21-1.35,19.82h-21.97v69.14h19.96c.11,2.16.2,4,.29,5.83v13.2h45.55c.24-6.07.47-12.13.71-18.2-.34-8.41-.67-16.82-1.01-25.23l.05.03c-1.67-.1-3.34-.21-5.01-.31Z"/><path class="cls-2" d="m453.26,173.4c-9.11,0-18.22,0-27.32,0,9.11,0,18.22,0,27.32,0Z"/><path class="cls-2" d="m424.92,173.39c-1.01,0-2.02,0-3.04-.01,1.01,0,2.02,0,3.04.01Z"/><path class="cls-2" d="m455.34,173.38c-.36,0-.71,0-1.07,0,.36,0,.71,0,1.07,0Z"/><path class="cls-2" d="m579.79,173.04h52.43v20.2h20.25v24.25h20.6c0,35.2,0,69.87,0,105.08h-40.45c-.13-1.31-.25-2.58-.37-3.85,0-12.77.01-25.55.02-38.32-.3-.35-.6-.7-.9-1.05l.02-.03c-2.38-.05-4.76-.09-7.15-.14-.95.11-1.89.21-2.84.32-15.92-.02-31.83-.03-47.75-.05-1.94.31-3.88.61-5.81.92v42.26h-44.69c-.34-32.29-.18-64.58-.21-96.87.09-3.33.18-6.67.27-10l-.02.02c.77-.09,1.39-.62,2.07-.95.62-.12,1.25-.24,1.87-.37,2.04,0,4.08-.01,6.11-.02,1.32.12,2.64.25,3.95.37,1.42.22,2.83.44,4.25.65,1.31.06,2.62.11,3.93.17.38-.66.77-1.32,1.15-1.99-.1-1.02-.21-2.03-.31-3.05,0-1.01,0-2.02-.01-3.03.14-4.68.28-9.37.42-14.05,6.98-.09,13.97-.19,20.95-.28.28-.3.56-.6.84-.9.02-2.27.04-4.55.06-6.82-.22-1.09-.44-2.17-.66-3.26v-8.87c1.35-.12,2.6-.24,3.85-.35,2.71,0,5.42,0,8.12,0Zm42.61,86.93c1.32,0,2.65,0,3.97.01.63.07,1.25.14,1.88.21,1.33-.06,2.66-.12,3.99-.17,0-15.51,0-30.85,0-46.39h-19.84c-.15-1.51-.27-2.77-.4-4.04,0-5.3,0-10.62,0-15.91h-24.25v20.06h-19.96v45.2c1.67.11,3.34.22,5,.33,1.97-.12,3.94-.24,5.91-.37,4.09.01,8.18.03,12.27.04,10.48.47,20.96.7,31.44,1.03Z"/><path class="cls-2" d="m467.25,270.24c0-4.02,0-8.04.05-12.07.34,8.41.67,16.82,1.01,25.23-.24-.05-.47-.09-.71-.11-.11-4.35-.23-8.7-.34-13.06Z"/><path class="cls-2" d="m423.78,213.44c.45-6.61.9-13.21,1.35-19.82-.45,6.61-.9,13.21-1.35,19.82Z"/><path class="cls-2" d="m462.33,257.89c1.67.1,3.34.21,5.01.31-1.67-.1-3.34-.21-5.01-.31Z"/><path class="cls-2" d="m447.4,238.03c-.13.98-.27,1.96-.4,2.93.13-.98.27-1.96.4-2.93Z"/><path class="cls-2" d="m688.93,231.8v-58.41c2.35-.13,4.29-.24,6.23-.35,11.44,0,22.47,0,34.24,0v20.21h18.37c1.62.09,3.24.19,4.85.28.13,3.67.26,7.34.39,11.01-.09,1.32-.19,2.63-.28,3.95.06,2.02.13,4.05.19,6.07l-.08.08c7.07-.02,14.15-.04,21.22-.06v.03c.08-1.35.16-2.71.24-4.06v-16.96c7.41,0,13.86,0,21.08-.03,7.34-5.67.08-13.94,3.97-20.52,13.04,0,26.15,0,39.33,0,.15,2.02.26,3.61.37,5.2,0,48.1,0,96.28,0,144.37-2.25.13-3.74.22-5.24.31-10.45,0-20.9,0-31.35,0-1.34-.09-2.68-.19-4.02-.28-.14-21.4-.26-42.89-.21-64.27h-24.29v19.64h-20.26v-19.63h-24.3v64.08h-40.47c0-30.43,0-60.31,0-90.65Z"/><path class="cls-2" d="m945.18,322.91c-30.19,0-59.96,0-90.25,0,0-49.98-.07-99.71.29-149.66,27.97.08,55.93.13,83.9.14.68-.11,1.35-.23,2.03-.34h63.46v20.19h-108.74v44.47h84.46v20.21h-84.46v44.45h108.75v20.54h-59.43Z"/><path class="cls-2" d="m939.11,173.4c-13.83-.01-27.67-.02-41.5-.03,1.34-.11,2.69-.21,4.03-.32,12.49.12,24.98.23,37.47.35Z"/><path class="cls-2" d="m567.59,484.43c-.04-1.02-.08-2.05-.12-3.07.12-2.31.24-4.62.35-6.93l.61-5.3v-5.04h-24.18c.11-1.84.2-3.34.29-4.85-.12-5.02-.25-10.05-.37-15.07-7.01-.1-14.02-.2-21.03-.3-.29-28.14-.2-56.37-.21-84.48h44.87v64.55h20.25v19.88h24.36v-20.29h19.85v-64.58c14.04-.04,26.78.17,40.61.29.11,28.24.37,56.47-.07,84.71-.64.07-1.29.14-1.93.21-5.82,0-11.99,0-17.67,0-.53,6.96-1.03,13.58-1.54,20.21h-19.39v21.94c-.97.05-1.94.11-2.91.16-.28-.09-.57-.16-.86-.21-2.71.06-5.42.09-8.13.09-1.07-.24-2.13-.49-3.2-.73-1.63-.07-3.25-.15-5.8-.26v17.18c-.04.67-.07,1.33-.11,2l-.13,3.97c-7.36.03-14.72.05-22.08.08-.1-1.67-.2-3.34-.3-5,.02-1.01.05-2.03.07-3.04,0,0,.28.1.28.1,0-4.42,0-8.83,0-13.25-.09-.32-.25-.61-.48-.85-2.91-.33-5.82-.67-8.74-1-1.36.29-2.69.77-4.08.92-.71.26-1.42.52-2.13.78-.62-.03-1.25-.06-1.87-.09-.41-.2-.82-.41-1.24-.61-.28,0-.55-.07-.8-.2-.37-.3-.73-.61-1.1-.91h.01c-.3-.38-.59-.74-.89-1.1,0,0-.16.11-.16.11Z"/><path class="cls-2" d="m588.71,497.52c.12-3.38.24-6.75.36-10.13,0,4.42,0,8.83,0,13.25-.12-1.04-.24-2.08-.36-3.12Z"/><path class="cls-2" d="m567.61,485.43c-.11-.23-.26-.45-.32-.7-.02-.07.2-.2.3-.3l.16-.11c-.03.35-.06.71-.09,1.06l-.05.04Z"/><path class="cls-2" d="m919.7,477.32v-12.84h-23.95v43.88h-40.38v-148.95h124.99v19.67h24.38v60.76c-.27.72-.55,1.43-.82,2.15-.36.32-.71.64-1.07.96-1.05.28-2.1.55-3.15.83-9.74,0-19.47.02-29.21.03-3.35.11-6.7.22-10.06.32,0,6.64-.02,13.28-.02,19.92,5.06.09,10.12.19,15.19.28l-.11-.3c1.38,0,2.76-.01,4.13-.02.49,7.89.98,15.79,1.49,24.09h23.41v20.32h-64.02c-.16-1.11-.36-2.46-.56-3.82,0-6.82,0-13.47,0-20.32h-19.87c-.14-1.41-.26-2.67-.38-3.93,0-1.02,0-2.04,0-3.06Zm40.54-97.71h-64.38v64.1h44.41v-20.1h19.97v-44.01Z"/><path class="cls-2" d="m688.93,465.22c0-35.53,0-70.62,0-106.27,50,0,99.44,0,149.67,0v20.18h-108.71v44.65c28.02,0,56.12-.03,84.21.08,1.49,0,2.97,1.23,4.46,1.88-.26.73-.51,1.46-.77,2.19-.09.63-.18,1.26-.28,1.88,0,2.04,0,4.08,0,6.11.11.31.2.62.27.94,0,.98,0,1.95-.01,2.93l.69,2.2c.16.31.15.62-.01.93-.28.29-.56.59-.84.88h-87.73v44.8c27.19,0,54.49,0,81.71.01,3.71-.12,7.43-.23,11.14-.35h15.88v20.06h-149.13c-.15-1.01-.35-2.36-.54-3.72,0-13.14,0-26.27,0-39.41Z"/><path class="cls-2" d="m784.23,488.29c8.44.11,16.88.23,25.32.34-10.46,0-20.92,0-31.37-.01,2.02-.11,4.04-.22,6.05-.33Z"/><path class="cls-2" d="m975.6,464.35c-5.06-.09-10.12-.19-15.19-.28,5.06.09,10.12.19,15.19.28Z"/><path class="cls-2" d="m960.43,444.14c3.35-.11,6.7-.22,10.06-.32-3.35.11-6.7.22-10.06.32Z"/><path class="cls-2" d="m817.5,435.94c0-2.04,0-4.08,0-6.11,0,2.04,0,4.08,0,6.11Z"/><path class="cls-2" d="m817.76,439.81c0-.98,0-1.95.01-2.93.25,1.07.49,2.14.74,3.21-.25-.09-.5-.18-.75-.28Z"/><path class="cls-2" d="m999.7,443.79c1.05-.28,2.1-.55,3.15-.83-1.05.28-2.1.55-3.15.83Z"/><path class="cls-2" d="m817.78,427.94c.26-.73.51-1.46.77-2.19-.26.73-.51,1.46-.77,2.19Z"/><path class="cls-2" d="m817.76,439.81c.25.09.5.19.75.28-.02.64-.04,1.28-.06,1.92l-.69-2.2Z"/><path class="cls-2" d="m1003.92,442.01c.27-.72.55-1.43.82-2.15-.27.72-.55,1.43-.82,2.15Z"/><path class="cls-2" d="m817.6,443.82c.28-.29.56-.59.84-.88-.28.29-.56.59-.84.88Z"/><path class="cls-2" d="m505.72,485.59c-2.29.32-4.59.65-6.88.97-1.03,0-2.06-.02-3.1-.03-.28-.13-.58-.23-.88-.31-.43-.2-.86-.39-1.3-.59-1.33.58-2.66,1.15-3.99,1.73-.02,1.07-.04,2.14-.07,3.21.11.62.21,1.24.32,1.86,0,.66-.01,1.31-.02,1.97.25,1.4.49,2.8.74,4.19v9.79h-108.99v-23.82h-20.14v-105.06h19.79v-20.56c36.79,0,72.77,0,109.55,0v20.25c3.7.1,7.39.2,11.09.29h9.26c-.13,35.9.32,71.06-.29,106.82-.98.04-1.95.08-2.93.13l.04-.06c-.74-.27-1.48-.53-2.22-.8Zm-87.89,3.02c10.46,0,20.92,0,31.39,0,4.39-.11,8.78-.22,13.17-.34,1.7-.6,3.4-1.19,5.1-1.79.31-.37.61-.73.92-1.1v-105.78h-66.47v108.67c4.82,0,9.34,0,13.86,0,.68.11,1.36.22,2.03.33Z"/><path class="cls-2" d="m490.55,498.6c-.25-1.4-.49-2.8-.74-4.19.24.09.47.17.72.24,0,1.32.01,2.63.02,3.95Z"/><path class="cls-2" d="m489.51,490.58c.02-1.07.04-2.14.07-3.21-.02,1.07-.04,2.14-.07,3.21Z"/><path class="cls-2" d="m507.9,486.44c.98-.04,1.95-.08,2.93-.13-.98.04-1.95.08-2.93.13Z"/><path class="cls-2" d="m495.74,486.53c1.03,0,2.06.02,3.1.03-1.03,0-2.06-.02-3.1-.03Z"/><path class="cls-2" d="m490.53,494.65c-.24-.07-.48-.15-.72-.24,0-.66.01-1.31.02-1.97l.7,2.21Z"/><path class="cls-2" d="m505.72,485.59c.74.27,1.48.53,2.22.8-.74-.27-1.48-.53-2.22-.8Z"/><path class="cls-2" d="m493.56,485.64c.43.2.86.39,1.3.59-.43-.2-.86-.39-1.3-.59Z"/><path class="cls-2" d="m400.65,301.38c-6.33,0-12.65,0-18.98,0-.09-.32-.09-.63.01-.94,6.32.31,12.65.62,18.97.94Z"/><path class="cls-2" d="m467.6,301.61c0-6.1,0-12.2,0-18.31.24.02.48.06.71.11-.24,6.07-.47,12.13-.71,18.2Z"/><path class="cls-2" d="m365.11,214.79c5.44-.03,10.88-.07,16.32-.1-5.44.03-10.88.07-16.32.1Z"/><path class="cls-2" d="m390.36,193.6c4.07-.08,8.14-.17,12.21-.25-4.07.08-8.14.17-12.21.25Z"/><path class="cls-2" d="m402.61,193.38c.08-2.38.16-4.77.24-7.15-.08,2.38-.16,4.77-.24,7.15Z"/><path class="cls-2" d="m381.46,214.68c.05-1.4.1-2.79.15-4.19-.05,1.4-.1,2.79-.15,4.19Z"/><path class="cls-2" d="m402.48,177.33l-.61-2.28c.2.76.41,1.52.61,2.28Z"/><path class="cls-2" d="m381.62,195.57c.24-.4.47-.81.71-1.21-.24.4-.47.81-.71,1.21Z"/><path class="cls-2" d="m382.34,194.35c.41-.24.81-.47,1.22-.71-.41.24-.81.47-1.22.71Z"/><path class="cls-2" d="m402.51,302.63c-.32-.31-.65-.62-.97-.92.32.31.65.62.97.92Z"/><path class="cls-2" d="m546.2,207.58c.14-4.68.28-9.37.42-14.05-.14,4.68-.28,9.37-.42,14.05Z"/><path class="cls-2" d="m578.7,258.9l12.27.04-12.27-.04Z"/><path class="cls-2" d="m631.38,279.32c-2.38-.05-4.76-.09-7.15-.14,2.38.05,4.76.09,7.15.14Z"/><path class="cls-2" d="m527.12,214.47c2.04,0,4.08-.01,6.11-.02-2.04,0-4.08.01-6.11.02Z"/><path class="cls-2" d="m567.78,258.94c1.67.11,3.34.22,5,.33-1.67-.11-3.34-.22-5-.33Z"/><path class="cls-2" d="m628.25,260.2c1.33-.06,2.66-.12,3.99-.17-1.33.06-2.66.12-3.99.17Z"/><path class="cls-2" d="m537.19,214.82c1.34-.02,2.67-.04,4.01-.07.09.24.17.48.24.72-1.42-.22-2.83-.44-4.25-.65Z"/><path class="cls-2" d="m568.48,185.52c-.25-.09-.49-.2-.73-.32.02-.98.04-1.96.07-2.94.22,1.09.44,2.17.66,3.26Z"/><path class="cls-2" d="m567.58,193.25c.28-.3.56-.6.84-.9-.28.3-.56.6-.84.9Z"/><path class="cls-2" d="m632.26,280.4c-.3-.35-.6-.7-.9-1.05.3.35.6.7.9,1.05Z"/><path class="cls-2" d="m752.86,214.64c7.07-.02,14.15-.04,21.22-.06-7.07.02-14.15.04-21.22.06Z"/><path class="cls-2" d="m784.22,193.59c3.72-.01,7.45-.02,11.17-.03-3.72.01-7.45.02-11.17.03Z"/><path class="cls-2" d="m752.74,208.49c.06,2.02.13,4.05.19,6.07-.06-2.02-.13-4.05-.19-6.07Z"/><path class="cls-2" d="m774.09,214.61c.08-1.35.15-2.71.23-4.06-.08,1.35-.15,2.71-.23,4.06Z"/><path class="cls-2" d="m544.54,459.25c-.12-5.02-.25-10.05-.37-15.07.12,5.02.25,10.05.37,15.07Z"/><path class="cls-2" d="m567.82,474.43c.2-1.77.41-3.53.61-5.3-.2,1.77-.41,3.53-.61,5.3Z"/><path class="cls-2" d="m589.02,508.58c-.1-1.67-.2-3.34-.3-5,.1,1.67.2,3.34.3,5Z"/><path class="cls-2" d="m611.98,504.78c-.29,1.24-.59,2.48-.88,3.72l.13-3.97c.24.1.49.18.75.24Z"/><path class="cls-2" d="m628.48,486.26l-4.23.08,4.23-.08Z"/><path class="cls-2" d="m620.35,486.35c-1.07-.24-2.13-.49-3.2-.73,1.07.24,2.13.49,3.2.73Z"/><path class="cls-2" d="m632.25,486.31c-.97.05-1.94.11-2.91.16.97-.05,1.94-.11,2.91-.16Z"/><path class="cls-2" d="m579.85,485.54c-.08.23-.15.47-.21.7-.98.03-1.97.06-2.95.08,1.06-.26,2.11-.52,3.17-.79Z"/><path class="cls-2" d="m611.98,504.78c-.26-.06-.5-.14-.75-.24.04-.67.07-1.33.11-2,.21.75.42,1.5.64,2.25Z"/><path class="cls-2" d="m575.77,486.46c-.71.26-1.42.52-2.13.78.71-.26,1.42-.52,2.13-.78Z"/><path class="cls-2" d="m571.77,487.16c-.41-.2-.82-.41-1.24-.61.41.2.82.41,1.24.61Z"/><path class="cls-2" d="m567.66,485.39c.03-.35.06-.71.09-1.06.3.36.59.73.89,1.09l-.49.02-.49-.04Z"/><path class="cls-2" d="m569.74,486.34c-.37-.3-.73-.61-1.1-.91.37.3.73.61,1.1.91Z"/><path class="cls-2" d="m810.55,488.62c.34,0,.68,0,1.03,0-.34,0-.68,0-1.03,0Z"/><path class="cls-2" d="m854.08,325.78c.34.34.68.67,1.02,1.01-.34-.34-.68-.67-1.02-1.01Z"/><path class="cls-2" d="m417.83,488.61c10.46,0,20.92,0,31.39,0-10.46,0-20.92,0-31.39,0Z"/><path class="cls-2" d="m490.77,379.2c3.7.1,7.39.2,11.09.29-3.7-.1-7.39-.2-11.09-.29Z"/><path class="cls-2" d="m467.48,486.49c.31-.37.61-.73.92-1.1-.31.37-.61.73-.92,1.1Z"/></g><g><path class="cls-1" d="m259.36,568.32v14.78c0,.62-.22,1.15-.67,1.59-.44.44-.97.66-1.58.66-.64,0-1.18-.22-1.63-.65s-.67-.97-.67-1.59v-14.77l-9.02-11.42v-4.75c0-.64.22-1.18.65-1.63s.97-.67,1.59-.67,1.16.23,1.62.69.68,1,.68,1.62v3.09l6.73,8.65,6.84-8.64v-3.12c0-.62.22-1.16.67-1.61s.97-.68,1.58-.68,1.11.21,1.56.63.68.97.68,1.67v4.7l-9.02,11.46Z"/><path class="cls-1" d="m301.36,567.67v9.48c0,2.01-.95,3.87-2.84,5.58s-3.85,2.56-5.86,2.56h-5.26c-2.05,0-4-.87-5.87-2.6s-2.8-3.58-2.8-5.54v-9.48c0-1.96.91-3.8,2.74-5.54s3.8-2.6,5.94-2.6h5.26c2.01-.04,3.96.8,5.86,2.51s2.84,3.59,2.84,5.63Zm-18.1.19v9.08c0,.82.29,1.47.88,1.95l1.68,1.44c.37.32.9.48,1.58.48h5.21c.77,0,1.46-.28,2.08-.83l1.36-1.2c.55-.43.83-1.02.83-1.79v-9.08c0-.89-.28-1.55-.83-1.98l-1.58-1.25c-.53-.44-1.16-.67-1.87-.67h-4.65c-1.01,0-1.8.24-2.35.72l-1.52,1.31c-.55.46-.83,1.07-.83,1.82Z"/><path class="cls-1" d="m322.47,580.81l7.54-4.81v-14.18c0-.62.22-1.16.65-1.62s.97-.68,1.59-.68,1.15.23,1.59.68.65.99.65,1.62v21.28c0,.61-.22,1.13-.67,1.58s-.97.67-1.58.67-1.13-.22-1.58-.67-.67-.97-.67-1.58v-1.76l-3.89,2.54c-1.53.98-3.07,1.47-4.64,1.47h-2.08c-1.83,0-3.4-.64-4.72-1.92-1.31-1.28-2.02-2.85-2.11-4.7l-.67-16.9c-.04-.59.17-1.11.63-1.56s.99-.68,1.62-.68,1.13.22,1.56.67.66.97.68,1.58l.61,16.58c.05,1.6.97,2.4,2.74,2.4h2.72Z"/><path class="cls-1" d="m388.46,564.79l-6.13,3.98v14.34c0,.61-.22,1.13-.67,1.58s-.97.67-1.58.67-1.13-.22-1.58-.67-.67-.97-.67-1.58v-21.28c0-.62.22-1.16.65-1.62s.97-.68,1.59-.68,1.13.23,1.58.68.67.99.67,1.62v1.5l4.09-2.48c1.37-.87,2.92-1.31,4.65-1.31h2.09c1.78,0,3.32.63,4.63,1.9s1.99,2.82,2.06,4.67l.61,17.01c.02.61-.2,1.13-.64,1.58s-.98.67-1.6.67c-.59,0-1.1-.2-1.55-.6s-.68-.95-.69-1.64l-.67-16.74c-.05-1.57-.87-2.35-2.46-2.35h-2.19c-.68,0-1.41.26-2.19.77Z"/><path class="cls-1" d="m433.47,568.02v5.42c0,.61-.22,1.13-.67,1.58s-.97.67-1.58.67h-15.86v1.31c0,.77.33,1.42.99,1.95l1.31,1.09c.71.55,1.39.83,2.03.83h11.53c.61,0,1.13.22,1.58.65s.67.97.67,1.59-.23,1.13-.68,1.58-.97.67-1.56.67h-11.83c-.78,0-1.61-.16-2.47-.49s-1.5-.67-1.91-1.03l-2-1.76c-.62-.5-1.14-1.19-1.56-2.08s-.63-1.71-.63-2.46v-10.28c0-.59.23-1.38.68-2.38s1.03-1.77,1.72-2.32l1.87-1.47c1.23-1,2.59-1.5,4.09-1.5h6.3c1.58,0,3.08.66,4.49,1.98l1.68,1.6c1.21,1.09,1.82,2.71,1.82,4.86Zm-18.05-.35v3.47h13.62v-3.12c0-.84-.26-1.48-.77-1.92l-1.31-1.15c-.68-.55-1.28-.83-1.82-.83h-5.63c-.69,0-1.33.24-1.9.72l-1.31,1.09c-.59.44-.88,1.02-.88,1.74Z"/><path class="cls-1" d="m466.52,561.83v4.27l-7.78,17.68c-.5,1.05-1.16,1.57-1.98,1.57h-2.88c-1.05,0-1.82-.54-2.3-1.63l-7.73-17.56v-4.33c0-.62.22-1.15.65-1.59s.97-.65,1.59-.65,1.15.22,1.59.65.65.96.65,1.59l.02,3.44,6.83,15.39,6.79-15.43v-3.39c0-.62.22-1.15.67-1.59s.99-.65,1.63-.65,1.15.22,1.59.65.65.97.65,1.59Z"/><path class="cls-1" d="m499.52,568.02v5.42c0,.61-.22,1.13-.67,1.58s-.97.67-1.58.67h-15.86v1.31c0,.77.33,1.42.99,1.95l1.31,1.09c.71.55,1.39.83,2.03.83h11.53c.61,0,1.13.22,1.58.65s.67.97.67,1.59-.23,1.13-.68,1.58-.97.67-1.56.67h-11.83c-.78,0-1.61-.16-2.47-.49s-1.5-.67-1.91-1.03l-2-1.76c-.62-.5-1.14-1.19-1.56-2.08s-.63-1.71-.63-2.46v-10.28c0-.59.23-1.38.68-2.38s1.03-1.77,1.72-2.32l1.87-1.47c1.23-1,2.59-1.5,4.09-1.5h6.3c1.58,0,3.08.66,4.49,1.98l1.68,1.6c1.21,1.09,1.82,2.71,1.82,4.86Zm-18.05-.35v3.47h13.62v-3.12c0-.84-.26-1.48-.77-1.92l-1.31-1.15c-.68-.55-1.28-.83-1.82-.83h-5.63c-.69,0-1.33.24-1.9.72l-1.31,1.09c-.59.44-.88,1.02-.88,1.74Z"/><path class="cls-1" d="m509.96,583.11v-21.28c0-.62.22-1.16.65-1.62s.97-.68,1.59-.68,1.15.22,1.59.67.65.99.65,1.63v2.8l3.66-3.12c1.51-1.28,2.99-1.92,4.43-1.92h3.28c1.85,0,3.44.66,4.75,1.98s1.98,2.9,1.98,4.75v1.2c0,.64-.22,1.18-.65,1.63s-.97.67-1.59.67-1.15-.22-1.59-.65-.65-.97-.65-1.59v-1.25c0-.62-.22-1.15-.65-1.59s-.97-.65-1.59-.65h-2.91c-.62,0-1.32.33-2.08.99l-6.38,5.53v12.52c0,.62-.22,1.15-.67,1.59s-.97.65-1.58.65-1.15-.22-1.59-.65-.65-.97-.65-1.59Z"/><path class="cls-1" d="m590.11,594.96h-9.72c-.62,0-1.15-.21-1.59-.64s-.65-.96-.65-1.6.22-1.15.65-1.58.97-.64,1.59-.64h9.72c.59,0,1.14-.22,1.66-.67l1.52-1.31c.52-.39.77-.91.77-1.55v-6.84c-2.1,2.12-4.15,3.18-6.14,3.18h-3.44c-1.78,0-3.38-.61-4.81-1.84l-1.68-1.5c-.55-.46-1.03-1.14-1.43-2.03s-.6-1.76-.6-2.62v-7.42c0-1.05.2-2.05.6-2.99s.88-1.65,1.43-2.11l1.84-1.58c1.32-1.14,2.87-1.71,4.65-1.71h3.23c1.76,0,3.36.62,4.81,1.87l1.55,1.31-.05-.88c0-.61.22-1.13.67-1.58s.97-.67,1.58-.67,1.16.22,1.62.65.68.97.68,1.59v25.15c0,1.9-.77,3.53-2.3,4.89l-1.82,1.58c-.46.41-1.12.77-1.96,1.07s-1.63.45-2.36.45Zm-2.56-30.94h-3.02c-.66,0-1.29.26-1.9.77l-1.39,1.15c-.53.44-.8,1.05-.8,1.82v7.48c0,.61.29,1.17.88,1.71l1.47,1.31c.46.39.95.59,1.47.59h3.66c.53,0,1.12-.27,1.76-.8l3.55-3.02c.55-.48.83-1.07.83-1.76v-3.39c0-.82-.31-1.49-.93-2l-3.66-3.12c-.52-.48-1.16-.72-1.92-.72Z"/><path class="cls-1" d="m631.63,567.67v9.48c0,2.01-.95,3.87-2.84,5.58s-3.85,2.56-5.86,2.56h-5.26c-2.05,0-4-.87-5.87-2.6s-2.8-3.58-2.8-5.54v-9.48c0-1.96.91-3.8,2.74-5.54s3.8-2.6,5.94-2.6h5.26c2.01-.04,3.96.8,5.86,2.51s2.84,3.59,2.84,5.63Zm-18.1.19v9.08c0,.82.29,1.47.88,1.95l1.68,1.44c.37.32.9.48,1.58.48h5.21c.77,0,1.46-.28,2.08-.83l1.36-1.2c.55-.43.83-1.02.83-1.79v-9.08c0-.89-.28-1.55-.83-1.98l-1.58-1.25c-.53-.44-1.16-.67-1.87-.67h-4.65c-1.01,0-1.8.24-2.35.72l-1.52,1.31c-.55.46-.83,1.07-.83,1.82Z"/><path class="cls-1" d="m657.82,585.35h-4.49c-1.85,0-3.44-.66-4.78-1.98s-2-2.9-2-4.75v-14.55h-2.3c-.62,0-1.15-.21-1.59-.64s-.65-.96-.65-1.6.22-1.15.65-1.59.97-.65,1.59-.65h2.35v-5.5c0-.62.22-1.15.65-1.59s.97-.65,1.59-.65c.59,0,1.11.22,1.56.67s.68.97.68,1.58v5.5h9.02c.61,0,1.13.22,1.58.67s.67.97.67,1.58-.22,1.15-.67,1.59-.97.65-1.58.65h-9.08v14.55c0,.61.23,1.13.68,1.58s.99.67,1.62.67h4.38c1.19,0,1.98-.65,2.38-1.94s1.15-1.94,2.27-1.94c.66,0,1.2.22,1.62.65s.63.98.63,1.64c0,1.35-.64,2.7-1.91,4.04s-2.9,2.02-4.87,2.02Z"/><path class="cls-1" d="m730.71,567.67v9.48c0,2.01-.95,3.87-2.84,5.58s-3.85,2.56-5.86,2.56h-5.26c-2.05,0-4-.87-5.87-2.6s-2.8-3.58-2.8-5.54v-9.48c0-1.96.91-3.8,2.74-5.54s3.8-2.6,5.94-2.6h5.26c2.01-.04,3.96.8,5.86,2.51s2.84,3.59,2.84,5.63Zm-18.1.19v9.08c0,.82.29,1.47.88,1.95l1.68,1.44c.37.32.9.48,1.58.48h5.21c.77,0,1.46-.28,2.08-.83l1.36-1.2c.55-.43.83-1.02.83-1.79v-9.08c0-.89-.28-1.55-.83-1.98l-1.58-1.25c-.53-.44-1.16-.67-1.87-.67h-4.65c-1.01,0-1.8.24-2.35.72l-1.52,1.31c-.55.46-.83,1.07-.83,1.82Z"/><path class="cls-1" d="m751.82,580.81l7.54-4.81v-14.18c0-.62.22-1.16.65-1.62s.97-.68,1.59-.68,1.15.23,1.59.68.65.99.65,1.62v21.28c0,.61-.22,1.13-.67,1.58s-.97.67-1.58.67-1.13-.22-1.58-.67-.67-.97-.67-1.58v-1.76l-3.89,2.54c-1.53.98-3.07,1.47-4.64,1.47h-2.08c-1.83,0-3.4-.64-4.72-1.92-1.31-1.28-2.02-2.85-2.11-4.7l-.67-16.9c-.04-.59.17-1.11.63-1.56s.99-.68,1.62-.68,1.13.22,1.56.67.66.97.68,1.58l.61,16.58c.05,1.6.97,2.4,2.74,2.4h2.72Z"/><path class="cls-1" d="m789.93,585.35h-4.49c-1.85,0-3.44-.66-4.78-1.98s-2-2.9-2-4.75v-14.55h-2.3c-.62,0-1.15-.21-1.59-.64s-.65-.96-.65-1.6.22-1.15.65-1.59.97-.65,1.59-.65h2.35v-5.5c0-.62.22-1.15.65-1.59s.97-.65,1.59-.65c.59,0,1.11.22,1.56.67s.68.97.68,1.58v5.5h9.02c.61,0,1.13.22,1.58.67s.67.97.67,1.58-.22,1.15-.67,1.59-.97.65-1.58.65h-9.08v14.55c0,.61.23,1.13.68,1.58s.99.67,1.62.67h4.38c1.19,0,1.98-.65,2.38-1.94s1.15-1.94,2.27-1.94c.66,0,1.2.22,1.62.65s.63.98.63,1.64c0,1.35-.64,2.7-1.91,4.04s-2.9,2.02-4.87,2.02Z"/><path class="cls-1" d="m862.82,567.67v9.48c0,2.01-.95,3.87-2.84,5.58s-3.85,2.56-5.86,2.56h-5.26c-2.05,0-4-.87-5.87-2.6s-2.8-3.58-2.8-5.54v-9.48c0-1.96.91-3.8,2.74-5.54s3.8-2.6,5.94-2.6h5.26c2.01-.04,3.96.8,5.86,2.51s2.84,3.59,2.84,5.63Zm-18.1.19v9.08c0,.82.29,1.47.88,1.95l1.68,1.44c.37.32.9.48,1.58.48h5.21c.77,0,1.46-.28,2.08-.83l1.36-1.2c.55-.43.83-1.02.83-1.79v-9.08c0-.89-.28-1.55-.83-1.98l-1.58-1.25c-.53-.44-1.16-.67-1.87-.67h-4.65c-1.01,0-1.8.24-2.35.72l-1.52,1.31c-.55.46-.83,1.07-.83,1.82Z"/><path class="cls-1" d="m883.49,564.07v19.04c0,.62-.22,1.15-.67,1.59s-.97.65-1.58.65c-.64,0-1.18-.22-1.63-.65s-.67-.97-.67-1.59v-19.04h-2.3c-.62,0-1.15-.22-1.59-.67s-.65-.97-.65-1.58.2-1.11.6-1.56.95-.68,1.64-.68h2.35v-1.74c0-2.3.79-4.2,2.36-5.71s3.54-2.27,5.89-2.27h5.26c.62,0,1.15.22,1.59.67s.65.99.65,1.63c0,.61-.22,1.13-.67,1.58s-.97.67-1.58.67h-5.26c-1.07,0-1.95.32-2.66.96s-1.05,1.47-1.05,2.48v1.74h4.49c.61-.02,1.13.2,1.58.64s.67.98.67,1.6-.22,1.13-.67,1.58-.97.67-1.58.67h-4.54Z"/><path class="cls-1" d="m943.91,552.11v10.55l1.98-1.58c1.25-1.03,2.54-1.55,3.87-1.55h4.11c1.51,0,2.86.52,4.03,1.55l2.14,1.84c.59.52,1.07,1.25,1.46,2.22s.57,1.9.57,2.83v9.08c0,.82-.18,1.68-.53,2.59s-.77,1.58-1.23,2l-1.95,1.84c-.5.48-1.21.91-2.14,1.29s-1.71.57-2.35.57h-3.84c-1.87,0-3.91-1.04-6.11-3.12v.88c0,.62-.22,1.15-.65,1.59s-.97.65-1.59.65-1.15-.22-1.59-.65-.65-.97-.65-1.59v-31c0-.62.22-1.15.67-1.59s.97-.65,1.58-.65,1.15.22,1.59.65.65.97.65,1.59Zm9.61,11.96h-3.1c-.75,0-1.32.17-1.71.51l-4.03,3.44c-.52.46-.77,1.16-.77,2.08v5.07c0,.75.29,1.37.88,1.87l3.6,3.04c.52.48,1.06.72,1.63.72h3.66c.52,0,.96-.16,1.33-.48l1.79-1.6c.48-.36.72-.86.72-1.52v-9.45c0-.75-.24-1.32-.72-1.71l-1.63-1.36c-.5-.41-1.05-.61-1.66-.61Z"/><path class="cls-1" d="m994.93,568.02v5.42c0,.61-.22,1.13-.67,1.58s-.97.67-1.58.67h-15.86v1.31c0,.77.33,1.42.99,1.95l1.31,1.09c.71.55,1.39.83,2.03.83h11.53c.61,0,1.13.22,1.58.65s.67.97.67,1.59-.23,1.13-.68,1.58-.97.67-1.56.67h-11.83c-.78,0-1.61-.16-2.47-.49s-1.5-.67-1.91-1.03l-2-1.76c-.62-.5-1.14-1.19-1.56-2.08s-.63-1.71-.63-2.46v-10.28c0-.59.23-1.38.68-2.38s1.03-1.77,1.72-2.32l1.87-1.47c1.23-1,2.59-1.5,4.09-1.5h6.3c1.58,0,3.08.66,4.49,1.98l1.68,1.6c1.21,1.09,1.82,2.71,1.82,4.86Zm-18.05-.35v3.47h13.62v-3.12c0-.84-.26-1.48-.77-1.92l-1.31-1.15c-.68-.55-1.28-.83-1.82-.83h-5.63c-.69,0-1.33.24-1.9.72l-1.31,1.09c-.59.44-.88,1.02-.88,1.74Z"/><path class="cls-1" d="m1023.42,562.71v-10.6c0-.62.21-1.15.64-1.59s.94-.65,1.55-.65,1.16.22,1.62.65.68.97.68,1.59v31c0,.62-.22,1.15-.67,1.59s-.97.65-1.58.65c-.64,0-1.17-.22-1.6-.65s-.64-.97-.64-1.59v-.99c-2.19,2.15-4.24,3.23-6.14,3.23h-3.82c-1.53,0-3.06-.66-4.59-1.98l-1.87-1.58c-.43-.41-.83-1.09-1.21-2.06s-.57-1.86-.57-2.7v-9.13c0-1.01.21-2,.64-2.95s.93-1.67,1.5-2.15l1.84-1.58c1.32-1.14,2.87-1.71,4.65-1.71h3.23c1.76,0,3.36.62,4.81,1.87l1.55,1.31Zm-6.51,1.36h-3.12c-.66,0-1.25.24-1.79.72l-1.44,1.25c-.5.44-.75,1.01-.75,1.71v9.51c0,.62.29,1.18.88,1.68l1.47,1.25c.46.41.95.61,1.47.61h3.66c.48,0,1.05-.28,1.71-.83l3.55-2.94c.59-.52.88-1.16.88-1.92v-4.86c0-1.09-.31-1.89-.93-2.4l-3.66-3.12c-.48-.44-1.12-.67-1.92-.67Z"/><path class="cls-1" d="m1047.37,571.2h4.54c.61,0,1.13.22,1.58.65s.67.97.67,1.59v3.82c0,.62-.22,1.16-.65,1.62s-.97.68-1.59.68h-4.59c-.62,0-1.15-.22-1.59-.67s-.65-.97-.65-1.58v-3.87c0-.62.22-1.15.67-1.59s.99-.65,1.63-.65Z"/><path class="cls-1" d="m1080.4,571.2h4.54c.61,0,1.13.22,1.58.65s.67.97.67,1.59v3.82c0,.62-.22,1.16-.65,1.62s-.97.68-1.59.68h-4.59c-.62,0-1.15-.22-1.59-.67s-.65-.97-.65-1.58v-3.87c0-.62.22-1.15.67-1.59s.99-.65,1.63-.65Z"/><path class="cls-1" d="m1113.42,571.2h4.54c.61,0,1.13.22,1.58.65s.67.97.67,1.59v3.82c0,.62-.22,1.16-.65,1.62s-.97.68-1.59.68h-4.59c-.62,0-1.15-.22-1.59-.67s-.65-.97-.65-1.58v-3.87c0-.62.22-1.15.67-1.59s.99-.65,1.63-.65Z"/></g></svg>