<?xml version="1.0" encoding="UTF-8"?><svg id="Laag_1" xmlns="http://www.w3.org/2000/svg" viewBox="0 0 400 400"><defs><style>.cls-1{fill:#fff;}.cls-2{fill:#a57195;}.cls-3{fill:#4f4a56;}.cls-4{fill:#bfac88;}</style></defs><path class="cls-1" d="M77.27,257.22c-5.39,12.86-10.79,25.72-16.18,38.58,17.27-9.56,34.55-19.13,51.82-28.69,20.58,.33,56.37,1.02,101.81,2.5,51.09,1.66,65.63,2.74,82.34-8.52,31.29-21.09,52.34-73.46,37.83-107.58-10.92-25.68-40.12-30.99-86.42-39.42-58.61-10.67-125.17-22.79-163.01,22.97-7.52,9.09-28.41,38.01-24.54,75.95,2.13,20.86,10.91,36.2,16.36,44.22Z"/><g><path class="cls-4" d="M231.52,182.29c0-18.3-11.58-33.14-25.86-33.14s-25.86,14.84-25.86,33.14c0,12.49,5.39,23.36,13.35,29.01-.97,3.51-.12,7.74,2.23,10.65,3.14,3.88,9.17,5.68,12.26,3.58,.45-.31,1.11-.88,3.58-8.43,.35-1.08,.63-1.96,.85-2.69,11.19-3.65,19.46-16.65,19.46-32.12Z"/><g><path class="cls-2" d="M148.65,228.03c6.02-8.83,16.4-11.04,28.55-13.62,17.39-3.7,31.06-.52,43.57,2.38,15.99,3.71,27.6,6.41,32,15.66,1.83,3.85,1,5.84,2.77,18.38,1.21,8.55,2.7,15.4,3.73,19.76-9.82-.08-19.68-.19-29.61-.36-29.99-.49-59.5-1.37-88.53-2.61,.04-1.7,.13-4.22,.36-7.26,1-13.24,1.86-24.57,7.15-32.34Z"/><path class="cls-3" d="M207.74,150.79c-.59,.09-1.45,.28-3.8,1.43-3.46,1.67-7.8,3.78-11.49,7.66-.75,.78-1.59,1.77-6.13,10.34-6.45,12.18-6.65,13.77-6.38,15.44,.81,5,4.92,5.22,5.61,10.23,.65,4.67-1.98,11.31-7.66,13.03-6.7,2.02-13.99-3.92-14.18-8.43-.17-3.94,5.14-5.02,5.36-9.58,.24-4.88-5.74-6.14-8.05-11.88-2.94-7.32,2.38-15.76,7.66-24.14,5.9-9.36,11.65-18.47,20.31-19.16,5.79-.46,8.59,3.19,18.01,2.3,5.07-.48,5.52-1.66,8.43-1.15,6.72,1.18,10.61,8.55,14.18,15.33,2.19,4.16,5.58,11.2,6.51,21.07,1.01,10.7-1.72,16.53,2.68,21.58,2.91,3.35,6.04,3.01,6.39,5.36,.65,4.43-9.37,12.8-17.5,9.83-3.93-1.44-7.44-5.52-7.66-9.96-.37-7.2,7.85-8.84,8.05-16.09,.16-5.8-5.03-7.24-8.05-16.48-2.06-6.29,1.19-9.11-1.53-12.64-2.3-3-6.82-4.73-10.76-4.11Z"/></g></g></svg>